<?xml version="1.0" encoding="UTF-8" standalone="no"?>
<!-- Created with Inkscape (http://www.inkscape.org/) -->

<svg
   version="1.1"
   id="svg1"
   width="1024"
   height="1024"
   viewBox="0 0 1024 1024"
   sodipodi:docname="favicon.svg"
   inkscape:version="1.4.2 (f4327f4, 2025-05-13)"
   xmlns:inkscape="http://www.inkscape.org/namespaces/inkscape"
   xmlns:sodipodi="http://sodipodi.sourceforge.net/DTD/sodipodi-0.dtd"
   xmlns="http://www.w3.org/2000/svg"
   xmlns:svg="http://www.w3.org/2000/svg">
  <defs
     id="defs1">
    <filter
       inkscape:label="Opacity"
       style="color-interpolation-filters:sRGB;"
       id="filter188"
       x="0"
       y="0"
       width="1"
       height="1">
      <feColorMatrix
         values="1 0 0 0 0 0 1 0 0 0 0 0 1 0 0 0 0 0 1 -0 "
         result="colormatrix"
         id="feColorMatrix188" />
      <feComposite
         in2="colormatrix"
         operator="arithmetic"
         k2="0.753799"
         result="composite"
         id="feComposite188" />
    </filter>
  </defs>
  <sodipodi:namedview
     id="namedview1"
     pagecolor="#ffffff"
     bordercolor="#000000"
     borderopacity="0.25"
     inkscape:showpageshadow="2"
     inkscape:pageopacity="0.0"
     inkscape:pagecheckerboard="0"
     inkscape:deskcolor="#d1d1d1"
     inkscape:zoom="1"
     inkscape:cx="452.5"
     inkscape:cy="596.5"
     inkscape:window-width="2485"
     inkscape:window-height="1399"
     inkscape:window-x="669"
     inkscape:window-y="722"
     inkscape:window-maximized="0"
     inkscape:current-layer="g163" />
  <g
     inkscape:groupmode="layer"
     inkscape:label="Image"
     id="g1"
     style="display:inline">
    <g
       id="g163"
       style="display:inline">
      <path
         style="display:inline;fill:#f9f9f9;stroke:none"
         d="M 512,1024 C 0,1024 0,1024 0,512 0,0 0,0 512,0 c 512,0 512,0 512,512 0,512 0,512 -512,512 z"
         id="path93"
         sodipodi:nodetypes="sssss"
         inkscape:label="back" />
      <path
         id="path188"
         style="display:inline;fill:#e9e9e9"
         inkscape:label="bg"
         d="m 670.9668,0.81054688 c -4.17658,0.0390939 -8.44271,0.0827078 -12.80078,0.13085937 C 788.98003,51.083446 945.37572,142.64883 1020.0918,265.19336 1016.2022,200.49442 1008.442,151.5784 992.96094,114.59766 946.3252,75.280388 892.92356,38.524043 843.91602,13.025391 798.61684,5.1613452 741.92171,2.0454967 670.9668,0.81054688 Z M 142.79883,21.326172 c -9.66696,2.721136 -18.67961,5.790152 -27.08203,9.25 -1.28467,6.532393 -2.32503,12.537653 -3.59766,21.302734 C 99.590455,52.620082 86.634577,53.863195 73.388672,55.449219 65.856765,61.697355 59.096471,68.64918 53.03125,76.384766 72.662731,74.117103 92.803986,72.008721 111.80078,70.703125 103.76765,141.0476 111.28313,170.79633 116.1875,207.42188 103.96509,203.0717 37.962576,199.04404 10.529297,195.94727 9.5884911,202.55449 8.731351,209.38499 7.9511719,216.44531 43.484694,214.83672 75.838547,217.51832 119.9043,230.25 c 31.88272,133.93238 109.20906,299.65839 216.71289,386.6875 18.98192,16.76421 53.39954,31.29581 71.7539,41.66602 -5.76053,11.62495 -11.77311,19.63691 -20.43945,33.45312 C 360.93382,721.37098 353.20638,752.87337 302.5,725.08008 228.90742,684.58013 160.13329,643.44005 96.347656,592.52344 61.753359,560.51096 28.489752,525.38852 0.5859375,487.8418 0.58222626,496.81437 2.660607e-5,500.10237 0,509.41211 c -0.32478515,27.1776 -0.31079923,47.45894 0.04882812,69.96094 0.01496115,6.45213 0.5957567,8.89392 0.62109376,15.16015 C 78.206243,662.05435 210.33466,754.07801 312,796.00195 242.44043,865.44251 60.15057,835.0227 10.119141,825.12891 c 1.21954,8.88118 2.585992,17.36503 4.117187,25.4707 104.631102,24.19319 243.984412,32.84212 315.341792,-36.89063 36.84758,-31.28874 92.84795,11.80561 135.97852,17.91211 22.56351,12.37886 102.15506,20.47205 43,41.07813 -191.88679,85.01422 -300.88362,68.15773 -483.789062,19.81055 3.828165,11.65018 8.248543,22.26811 13.351563,31.94531 234.825149,42.88109 307.743199,56.1612 511.574219,-54.57813 38.91704,-17.97433 85.42566,6.05092 127.91797,1.75586 29.18335,2.3022 98.36301,-7.63997 41.46484,23.67188 -63.15971,46.82738 -129.67228,88.81454 -198.16992,127.30661 11.96073,-0.1929 24.44662,0.6489 37.02344,1.3731 16.22961,-0.017 31.89468,-0.051 47.01367,-0.1231 19.58197,-2.2587 37.97045,-8.6153 53.32617,-23.94138 63.09253,-41.40534 122.77055,-87.74801 181.92383,-134.41797 60.28366,-9.74214 121.53276,-28.10067 175.76364,-57.12304 1.3877,-12.43031 2.5363,-25.57762 3.4864,-39.48243 -26.73543,10.04073 -159.30593,58.58939 -105.41215,13.2461 45.194,-41.2477 91.93075,-82.91514 108.97265,-101.30469 0.7966,-39.13192 0.9562,-82.72751 0.9883,-131.29297 -0.046,-0.12784 -0.094,-0.25038 -0.1426,-0.36914 C 992.58374,616.008 949.63205,684.35661 898,737.33008 847.48005,753.60001 829.54961,751.79372 754.83789,755.47852 735.07561,755.71011 668.49248,764.64151 705.26758,733.5 749.98147,669.35729 789.60616,594.91921 791,517.45312 792.81743,416.44486 757.69464,306.36984 689.41992,231.9082 545.64698,93.921848 330.77533,52.44193 136.54883,51.349609 c 1.84539,-9.754708 3.93466,-19.283335 6.25,-30.023437 z m -5.9336,47.328125 c 79.44902,-3.706062 337.76698,26.529458 470.42579,126.263673 63.84526,47.9995 119.00521,117.65861 139.44531,194.875 24.94808,94.24612 40.98068,186.62322 -30.22852,290.91211 -20.43583,40.11584 -35.52676,83.68619 -104.45508,55.28906 C 554.18233,706.04035 497.64299,673.54181 438.69727,645.66602 466.41732,592.22436 481.13781,521.69903 456.00391,464.50781 423.61046,385.48515 363.41435,323.40072 295.95703,271.69922 247.58903,242.09384 193.69159,223.01666 139.33008,207.80273 132.7684,155.41677 127.43061,136.61894 136.86523,68.654297 Z M 143.5625,234 c 67.45223,17.03325 134.47858,43.43956 183.02344,95.29297 45.19338,43.26483 84.64831,94.36994 108.125,152.66211 13.92428,50.72774 3.71509,106.39468 -14.58594,154.36133 C 368.46248,612.98542 322.00123,579.83286 286.81055,534.94727 212.89721,450.32849 160.60977,345.01744 143.5625,234 Z m 286.96289,434.14062 c 70.90002,30.78166 136.40179,72.19321 205.79492,106.0254 -29.04325,34.68663 -69.00125,74.96748 -114.27148,41.18945 -52.1131,-18.43527 -104.92129,-34.80402 -157.49024,-51.86914 24.58621,-29.61818 51.92529,-58.90669 65.9668,-95.34571 z M 858.6543,771.19336 c -28.00325,47.65967 -63.8415,57.3219 -120.69532,61.30859 -30.57247,0.64162 -101.72764,9.09107 -118.79882,-0.70898 19.18641,-26.24304 40.20418,-42.64048 57.42578,-57.11719 26.75255,1.37125 58.63524,7.56326 86.55078,6.36328 32.08808,-0.25197 64.03011,-3.86147 95.51758,-9.8457 z" />
      <path
         style="display:none;fill:#f4a528"
         d="m 134.33557,696 c -0.47543,0 -6.59543,-5.74376 -13.6,-12.7639 C 113.73101,676.21595 108,670.0217 108,669.47109 c 0,-0.55061 5.519,-6.50685 12.26444,-13.2361 C 127.00988,649.50575 133.26327,644 134.16085,644 c 0.89758,0 3.06961,1.63738 4.82672,3.63863 3.19476,3.63863 3.19476,3.63863 -5.3964,12.26978 C 128.86602,664.65555 125,669.19676 125,670 c 0,0.80324 3.89913,5.37771 8.66473,10.16549 8.66472,8.70506 8.66472,8.70506 5.1,12.26978 -1.9606,1.9606 -3.95372,3.56473 -4.42916,3.56473 z m 755.06743,0 c -0.6577,0 -2.59706,-1.59593 -4.3097,-3.54652 -2.36803,-2.69703 -2.88865,-3.95454 -2.17358,-5.25 0.51716,-0.93691 4.34679,-5.06722 8.51029,-9.17845 4.16349,-4.11124 7.56999,-7.92734 7.56999,-8.48022 0,-0.55288 -3.9206,-4.94409 -8.71244,-9.75824 -8.71244,-8.75299 -8.71244,-8.75299 -5.30383,-12.26978 1.87473,-1.93423 3.88932,-3.51679 4.47687,-3.51679 0.58754,0 6.88872,5.83342 14.00263,12.96315 12.93437,12.96314 12.93437,12.96314 0.035,26 C 896.40354,690.13342 890.0607,696 889.403,696 Z M 150.65651,681 c -0.23605,0 -2.73033,-2.16043 -5.54285,-4.80096 C 142.30115,673.55851 140,670.85981 140,670.20192 c 0,-0.65789 1.64869,-3.02106 3.66375,-5.25149 2.01506,-2.23044 4.49156,-4.49837 5.50332,-5.03985 1.49781,-0.80159 2.76791,-0.11616 6.83625,3.6893 C 158.7515,666.17047 161,669.05053 161,670 c 0,0.94947 -2.23072,3.8129 -4.95716,6.36316 C 153.3164,678.91342 150.89255,681 150.65651,681 Z m 722.27445,0 c -0.27838,0 -2.62673,-2.15296 -5.21855,-4.78435 C 865.12058,673.58426 863,670.98139 863,670.43149 c 0,-0.5499 2.43387,-3.40345 5.4086,-6.34122 5.40859,-5.34141 5.40859,-5.34141 10.5,-0.579 2.80027,2.61933 5.0914,5.27871 5.0914,5.90973 0,0.63103 -2.37665,3.49445 -5.28145,6.36316 C 875.81376,678.65287 873.20934,681 872.93096,681 Z"
         id="path155"
         sodipodi:nodetypes="sssssssssssssssssssssssssssssssssssssss"
         inkscape:label="kovichki" />
      <path
         style="display:none;fill:#333433;stroke:#000000;stroke-opacity:1"
         d="m 468.24312,848.81387 c -2.04445,0.19703 -3.44877,-0.18621 -3.77236,-1.02947 -0.28352,-0.73884 -0.39293,-10.10508 -0.24312,-20.81387 C 464.5,807.5 464.5,807.5 467.31047,807.17774 c 1.54576,-0.17724 3.45533,0.21293 4.24348,0.86704 1.12293,0.93195 2.2219,0.81494 5.07877,-0.54074 2.36878,-1.12406 4.98166,-1.55085 7.4597,-1.21847 2.09766,0.28136 5.23591,1.5241 6.97389,2.76165 1.73798,1.23755 3.78406,3.74374 4.54683,5.56932 0.76277,1.82557 1.38686,5.40317 1.38686,7.95021 0,2.54705 -0.75148,6.21463 -1.66996,8.15018 -0.91849,1.93556 -3.05599,4.36475 -4.75,5.39822 -1.69402,1.03347 -4.5926,2.16481 -6.44129,2.5141 -2.22576,0.42053 -4.54785,0.0692 -6.87381,-1.03995 -1.9319,-0.92126 -3.79182,-1.39576 -4.13314,-1.05443 -0.34133,0.34132 -0.84811,3.17311 -1.1262,6.29286 -0.49472,5.55024 -0.57567,5.67902 -3.76248,5.98614 z M 480.64009,831 c 1.50206,0 3.77251,-0.97844 5.04546,-2.17431 1.67323,-1.57193 2.31445,-3.28562 2.31445,-6.18555 0,-2.74213 -0.68793,-4.7435 -2.17431,-6.32569 C 484.4171,814.81508 482.50573,814 480.39827,814 c -2.32332,0 -3.84549,0.75309 -5.32569,2.63486 -1.17661,1.49582 -2.07258,4.10924 -2.07258,6.04545 0,2.2878 0.80806,4.21866 2.45455,5.86514 1.4077,1.4077 3.61929,2.45455 5.18554,2.45455 z M 400.5,838.89209 c -2.75,-0.0352 -6.19581,-0.42525 -7.65736,-0.86678 -1.46155,-0.44154 -4.05927,-1.63092 -5.77272,-2.64308 -1.71344,-1.01215 -4.33116,-3.5947 -5.81716,-5.739 -2.12144,-3.06124 -2.78325,-5.33988 -3.08091,-10.6077 -0.29829,-5.27905 0.0485,-7.54304 1.62721,-10.62225 1.10347,-2.15231 3.06874,-4.9043 4.36727,-6.11555 1.29853,-1.21125 4.13557,-2.94375 6.30453,-3.85 2.16896,-0.90625 6.49998,-1.64773 9.62449,-1.64773 3.23625,0 7.19609,0.71899 9.20187,1.6708 1.93652,0.91894 4.30661,2.53894 5.26685,3.6 1.66233,1.83685 1.65926,2.02494 -0.0641,3.9292 -0.99549,1.1 -2.32008,2 -2.94355,2 -0.62346,0 -2.91622,-0.92576 -5.09501,-2.05724 -2.8975,-1.50472 -5.00223,-1.89903 -7.83668,-1.46816 -2.13139,0.324 -4.74297,1.05348 -5.80352,1.62107 -1.06054,0.56758 -2.8025,2.46575 -3.87101,4.21815 -1.13422,1.86016 -1.94431,4.99477 -1.94649,7.53189 -0.002,2.39014 0.73225,5.59164 1.6318,7.11446 0.89955,1.52281 2.88148,3.50474 4.40429,4.40429 1.52282,0.89955 4.67121,1.63554 6.99643,1.63554 2.57279,0 5.58131,-0.83659 7.68576,-2.13722 3.45809,-2.13721 3.45809,-2.13721 6.03802,0.44272 2.28003,2.28003 2.41487,2.77938 1.15995,4.29569 -0.781,0.94367 -3.21999,2.53457 -5.41999,3.53533 -2.26702,1.03124 -6.16622,1.79183 -9,1.75557 z m 35,-0.49481 c -2.57939,0.40556 -5.12628,0.12044 -7.17126,-0.8028 -1.7442,-0.78745 -3.68273,-2.38739 -4.30784,-3.55544 -0.62512,-1.16804 -0.99805,-3.74746 -0.82874,-5.73203 0.21415,-2.51018 1.10818,-4.20326 2.93763,-5.56317 1.72682,-1.28362 4.91218,-2.13806 9.27694,-2.48842 3.65593,-0.29346 6.87643,-0.90457 7.15668,-1.35802 0.28025,-0.45345 -0.44885,-1.78284 -1.62021,-2.9542 -1.69536,-1.69536 -2.97757,-2.03354 -6.28648,-1.65804 -2.28619,0.25944 -5.1612,0.8018 -6.3889,1.20524 -1.83341,0.6025 -2.41785,0.24519 -3.27149,-2.00007 -0.73443,-1.93167 -0.71698,-3.12199 0.0595,-4.05754 0.60433,-0.72817 3.51295,-1.86421 6.4636,-2.52454 4.25724,-0.95273 6.31133,-0.93559 9.94949,0.083 2.72197,0.76211 5.5649,2.44858 6.99734,4.15093 1.32697,1.57701 2.69296,4.77766 3.03554,7.11254 0.34257,2.33489 0.48232,7.62025 0.31056,11.74525 -0.31231,7.5 -0.31231,7.5 -6.31231,7.63418 -3.3,0.0738 -7.8,0.41719 -10,0.7631 z M 436.34892,833 c 1.21334,0 3.2318,-0.71845 4.48547,-1.59656 1.42842,-1.0005 2.16483,-2.40052 1.97251,-3.75 -0.23226,-1.62971 -1.11453,-2.23093 -3.62767,-2.47208 -1.8619,-0.17865 -4.38799,0.38063 -5.75,1.27306 -1.33608,0.87543 -2.42923,1.99917 -2.42923,2.4972 0,0.49804 0.70714,1.61267 1.57143,2.47695 0.86428,0.86429 2.56416,1.57143 3.77749,1.57143 z m 77.83108,6 c -1.58633,0 -4.37859,-1.0125 -6.20502,-2.25 -1.82644,-1.2375 -3.70776,-3.41934 -4.18073,-4.84852 -0.51086,-1.54372 -0.4588,-3.65359 0.12827,-5.1977 0.54352,-1.42955 2.13341,-3.34954 3.53309,-4.26665 1.39969,-0.91711 5.4819,-1.90323 9.07157,-2.19138 3.58968,-0.28814 6.75598,-0.8949 7.03623,-1.34835 0.28025,-0.45345 -0.40687,-1.74086 -1.52694,-2.86093 C 520.77834,814.77834 518.68717,814 516.5651,814 c -1.8892,0 -4.58673,0.43793 -5.99453,0.97317 -2.20405,0.83798 -2.79649,0.61167 -4.26472,-1.62914 -1.6428,-2.50723 -1.62316,-2.66867 0.53762,-4.41836 1.2335,-0.99883 4.29312,-2.12353 6.79915,-2.49933 2.73603,-0.41029 6.18155,-0.19638 8.62405,0.53541 2.23719,0.67028 5.30386,2.45493 6.81482,3.96589 1.79379,1.79379 2.97208,4.27859 3.39516,7.15978 0.35638,2.42692 0.50742,7.78758 0.33566,11.91258 -0.31231,7.5 -0.31231,7.5 -3.68947,7.82284 -1.85743,0.17757 -3.81722,-0.11722 -4.35507,-0.65507 -0.63722,-0.63722 -2.14948,-0.4884 -4.34072,0.42716 C 518.5775,838.36772 515.76633,839 514.18,839 Z m 3.39143,-6 c 1.33571,0 3.35624,-0.92767 4.49005,-2.06148 1.13382,-1.13382 1.91763,-2.82132 1.74181,-3.75 -0.20737,-1.09536 -1.48335,-1.80045 -3.63225,-2.00716 -1.85478,-0.17841 -4.38165,0.38184 -5.74181,1.27306 -1.33608,0.87543 -2.42923,1.99917 -2.42923,2.4972 0,0.49804 0.70714,1.61267 1.57143,2.47695 0.86428,0.86429 2.66428,1.57143 4,1.57143 z m 83.78354,5.47273 c -2.18878,0.30089 -5.5044,-0.0779 -7.67117,-0.87631 -2.0989,-0.77344 -4.74851,-2.23654 -5.88801,-3.25134 -1.1395,-1.01479 -2.68471,-3.29313 -3.43381,-5.06296 C 583.61289,827.51228 583,824.45686 583,822.49228 c 0,-1.96458 0.91815,-5.37168 2.04034,-7.57135 1.12218,-2.19966 3.47002,-4.86883 5.21742,-5.93149 1.7474,-1.06266 5.09895,-2.2203 7.44788,-2.57255 3.36355,-0.50439 5.28231,-0.13874 9.03257,1.72133 3.24946,1.61169 4.86288,3.0733 5.08007,4.60211 0.22453,1.58036 -0.39746,2.56644 -2.11138,3.34736 -1.90637,0.86859 -3.09498,0.76299 -5.51863,-0.49033 C 602.48935,814.71881 600.15652,814 599.00421,814 c -1.15232,0 -3.19966,1.10455 -4.54966,2.45455 C 592.75988,818.14921 592,820.02076 592,822.5 c 0,2.47924 0.75988,4.35079 2.45455,6.04545 1.35,1.35 3.56353,2.45455 4.91896,2.45455 1.35542,0 3.79477,-0.76352 5.42076,-1.69671 2.7854,-1.5986 3.10909,-1.59663 5.59795,0.0341 2.18909,1.43434 2.46233,2.06583 1.59505,3.68636 -0.57561,1.07553 -2.33598,2.6223 -3.91194,3.43726 -1.57596,0.81496 -4.60012,1.72022 -6.72036,2.01168 z M 548.46862,838 c -1.97249,0 -3.75129,-0.57306 -4.02954,-1.29816 -0.27398,-0.71398 -0.37236,-7.57648 -0.21861,-15.25 C 544.5,807.5 544.5,807.5 547.89514,807.17582 c 2.04185,-0.19497 3.72977,0.20363 4.23468,1 0.46176,0.7283 0.84645,3.25815 0.85487,5.6219 0.0153,4.29771 0.0153,4.29771 6.26531,4 C 565.5,817.5 565.5,817.5 566,812.5 c 0.5,-5 0.5,-5 4.5,-5 4,0 4,0 4,15 0,15 0,15 -4,15 -4,0 -4,0 -4.5,-6 -0.5,-6 -0.5,-6 -5.83118,-6.30507 -3.07106,-0.17575 -5.93267,0.19412 -6.75,0.87244 C 552.5156,826.81698 552,829.19909 552,832.62244 552,838 552,838 548.46862,838 Z m 76,0 c -1.97249,0 -3.75129,-0.57306 -4.02954,-1.29816 -0.27398,-0.71398 -0.37236,-7.57648 -0.21861,-15.25 C 620.5,807.5 620.5,807.5 624.25,807.18963 c 3.75,-0.31036 3.75,-0.31036 3.75,3.66822 0,2.18822 0.27314,4.69038 0.60699,5.56036 0.33384,0.86999 1.36171,1.58179 2.28416,1.58179 0.92244,0 4.12143,-2.475 7.10885,-5.5 4.68191,-4.7408 5.95403,-5.5 9.21584,-5.5 2.31273,0 3.78416,0.47477 3.78416,1.221 0,0.67155 -2.56414,3.81219 -5.6981,6.97919 -5.6981,5.75818 -5.6981,5.75818 -0.5,13.20318 2.85896,4.09475 5.1981,7.92911 5.1981,8.52081 0,0.6046 -1.9254,1.07582 -4.39575,1.07582 -4.17129,0 -4.55708,-0.2514 -7.55493,-4.92314 -1.73754,-2.70772 -3.77934,-5.43783 -4.53733,-6.06691 -1.06893,-0.88713 -1.85724,-0.6647 -3.51329,0.99135 -1.26468,1.26468 -2.06412,3.22843 -1.96095,4.81691 0.0958,1.47499 0.12649,3.24429 0.0682,3.93179 -0.0631,0.74402 -1.53542,1.25 -3.63734,1.25 z M 407.94353,781.77236 c -0.84758,0.16323 -1.85661,-0.0188 -2.24229,-0.40446 C 405.31556,780.98222 405,778.52199 405,775.90072 c 0,-3.83777 0.37764,-4.8858 1.93908,-5.38138 1.39155,-0.44166 2.21981,-2.08429 2.93331,-5.81739 0.54683,-2.86107 1.36175,-7.90195 1.81092,-11.20195 0.81669,-6 0.81669,-6 10.23312,-6.28973 6.85917,-0.21104 9.63865,0.0605 10.23469,1 0.45004,0.70935 0.82515,5.84713 0.83357,11.41729 0.0117,7.76831 0.36474,10.41755 1.51531,11.37244 0.90484,0.75095 1.5,2.93935 1.5,5.51546 0,2.64802 -0.50937,4.46603 -1.34068,4.78503 -0.73738,0.28296 -1.81701,0.2186 -2.39919,-0.14301 -0.58217,-0.36161 -1.21637,-1.78248 -1.40931,-3.15748 -0.34751,-2.47643 -0.44503,-2.5 -10.341,-2.5 -9.99018,0 -9.99018,0 -10.5077,2.98779 -0.28464,1.64328 -1.21101,3.12134 -2.05859,3.28457 z M 420.92054,770 C 427,770 427,770 427,760.94521 c 0,-9.05479 0,-9.05479 -4.75,-8.75 C 417.5,752.5 417.5,752.5 416.89658,758 c -0.33189,3.025 -0.93014,6.9625 -1.32946,8.75 -0.72603,3.25 -0.72603,3.25 5.35342,3.25 z m -154.17356,5.81265 c -0.96417,0.18434 -1.99122,-0.28556 -2.28234,-1.04421 -0.29113,-0.75866 -0.40227,-6.97942 -0.24698,-13.82391 C 264.5,748.5 264.5,748.5 273.5,748.5 c 8.33333,0 9,0.14815 9,2 0,1.75465 -0.76584,2.0365 -6.24288,2.29753 -5.49281,0.26179 -6.30383,0.56216 -6.7502,2.5 -0.27902,1.21136 -0.61973,6.24741 -0.75712,11.19122 -0.21272,7.65448 -0.51001,9.03849 -2.00282,9.3239 z M 306.5,775.99252 c -3.25487,0 -6.15534,-0.70439 -8.31018,-2.01815 -1.85631,-1.13177 -3.98879,-3.64233 -4.85527,-5.7161 -0.96932,-2.3199 -1.36009,-5.33936 -1.04862,-8.10264 0.37524,-3.32915 1.3602,-5.26843 4.03373,-7.94196 2.97814,-2.97814 4.39208,-3.60815 8.94523,-3.98573 3.80734,-0.31573 6.3574,0.0425 8.61576,1.21034 1.76429,0.91235 4.08621,3.09947 5.15983,4.86027 1.13433,1.86035 1.95361,5.00259 1.95578,7.50111 0.002,2.36481 -0.69311,5.64721 -1.54481,7.29422 -0.8517,1.64701 -2.9892,3.87298 -4.75,4.9466 -2.0483,1.24892 -5.00244,1.95204 -8.20145,1.95204 z M 306.5,771 c 2.47924,0 4.35079,-0.75988 6.04545,-2.45455 C 314.35152,766.73939 315,765.0101 315,762 c 0,-3.0101 -0.64848,-4.73939 -2.45455,-6.54545 -1.35,-1.35 -3.57882,-2.45455 -4.95294,-2.45455 -1.37412,0 -3.59496,0.49962 -4.93519,1.11027 -1.34022,0.61065 -2.9364,2.20683 -3.54705,3.54705 -0.61065,1.34023 -1.11027,3.78607 -1.11027,5.43519 0,1.85015 0.93998,3.93837 2.45455,5.45294 C 302.14921,770.24012 304.02076,771 306.5,771 Z m 29.45124,4.77489 c -0.85182,0.16184 -1.86432,-0.0213 -2.25,-0.40699 C 333.31556,774.98222 333,768.70622 333,761.42123 c 0,-13.24543 0,-13.24543 4,-13.92123 2.2,-0.37169 5.9125,-0.35803 8.25,0.0303 2.3375,0.38838 5.45002,1.32011 6.91671,2.07051 1.54246,0.78916 3.14209,2.8048 3.79432,4.78106 0.62019,1.87919 0.8422,4.5539 0.49336,5.9438 -0.34885,1.3899 -1.50197,3.31235 -2.56251,4.27212 -1.24293,1.12484 -4.32077,1.95066 -8.66006,2.3236 C 338.5,767.5 338.5,767.5 338,771.49032 c -0.31674,2.52775 -1.06767,4.09817 -2.04876,4.28457 z m 7.56597,-13.02394 c 2.46493,-0.27783 5.15694,-1.06556 5.98224,-1.7505 0.8253,-0.68493 1.50055,-2.24549 1.50055,-3.46791 0,-1.22241 -0.85401,-2.99543 -1.89779,-3.94004 -1.32995,-1.20359 -3.20005,-1.62398 -6.25,-1.40499 -4.2658,0.30629 -4.3585,0.38903 -4.66884,4.16765 -0.17415,2.12034 -0.0537,4.54046 0.26775,5.37805 0.4463,1.16306 1.64335,1.40353 5.06609,1.01774 z m 37.36476,13.22244 c -3.22498,-0.0159 -6.45129,-0.69003 -8.05008,-1.68193 -1.46746,-0.91042 -3.65852,-3.41751 -4.86901,-5.5713 -1.65387,-2.94266 -2.08014,-4.98744 -1.71503,-8.22674 0.26724,-2.37091 1.43693,-5.64637 2.59932,-7.2788 1.1624,-1.63242 3.65281,-3.69853 5.53427,-4.59133 1.88145,-0.89281 5.37781,-1.62161 7.76969,-1.61955 2.54736,0.002 5.67507,0.81237 7.55032,1.95578 1.7608,1.07362 3.9358,3.37211 4.83333,5.10775 0.89754,1.73564 1.63189,5.08037 1.63189,7.43273 0,2.35236 -0.70159,5.63375 -1.55909,7.29197 -0.8575,1.65822 -3.08562,3.95839 -4.95137,5.11149 -2.36682,1.46277 -5.01919,2.0885 -8.77424,2.06993 z M 381.03147,771 c 2.11771,0 4.06291,-0.94053 6.04545,-2.92308 C 389.24103,765.91282 390,764.20513 390,761.5 c 0,-2.70513 -0.75897,-4.41282 -2.92308,-6.57692 C 385.405,753.25116 383.08369,752 381.65365,752 c -1.37511,0 -3.88473,1.165 -5.57692,2.58889 -2.58811,2.17775 -3.07673,3.29666 -3.07673,7.04546 0,3.39832 0.58285,5.03941 2.45455,6.9111 1.5579,1.55791 3.59513,2.45455 5.57692,2.45455 z m 79.71254,5 c -1.27613,0 -4.32808,-1.0125 -6.78212,-2.25 -2.90388,-1.46434 -5.07242,-3.47214 -6.21034,-5.75 -0.96164,-1.925 -1.74746,-5.075 -1.74626,-7 10e-4,-1.925 0.89639,-4.96661 1.98931,-6.75914 1.09292,-1.79253 3.45373,-4.15334 5.24626,-5.24626 1.79253,-1.09292 4.73609,-1.98881 6.54126,-1.99086 1.80516,-0.002 4.84899,0.65094 6.76406,1.45111 1.91506,0.80016 3.76036,2.18041 4.10066,3.06721 0.3403,0.88681 0.1239,2.1072 -0.48089,2.71199 -0.79948,0.79948 -2.18352,0.61084 -5.07086,-0.69117 -2.42413,-1.09313 -4.95853,-1.54299 -6.50549,-1.15472 -1.39383,0.34983 -3.4467,1.61546 -4.56192,2.81251 -1.25596,1.34811 -2.02768,3.54237 -2.02768,5.76539 0,1.97391 0.69516,4.58141 1.54481,5.79445 0.84965,1.21304 2.98715,2.59616 4.75,3.0736 2.25217,0.60995 4.33962,0.42628 7.02048,-0.61773 2.70434,-1.05315 4.12614,-1.17495 4.88279,-0.4183 0.58712,0.58712 0.78906,1.79305 0.44876,2.67986 -0.3403,0.8868 -2.1856,2.26705 -4.10066,3.06721 C 464.63111,775.34532 462.02013,776 460.74401,776 Z M 528,775.9389 c -1.375,-0.009 -3.85,-0.6172 -5.5,-1.35054 -1.65,-0.73335 -4.08769,-2.51228 -5.41709,-3.95317 -1.75223,-1.89919 -2.54135,-4.11821 -2.86883,-8.0672 -0.36062,-4.34867 -0.0212,-6.14401 1.68285,-8.90122 1.17403,-1.89962 3.65801,-4.17675 5.51996,-5.06031 1.86195,-0.88355 4.79431,-1.60646 6.51636,-1.60646 1.72204,0 4.68168,0.64792 6.57697,1.43982 1.89529,0.79191 4.35416,2.92941 5.46415,4.75 1.28179,2.1024 2.01952,5.06143 2.02189,8.10984 0.002,2.63981 -0.7011,6.16268 -1.56258,7.82858 -0.93852,1.8149 -3.24318,3.79025 -5.75,4.92838 -2.30102,1.0447 -5.30868,1.89173 -6.68368,1.88228 z m -0.20034,-5.00658 c 0.71481,0.0372 2.56393,-0.5861 4.10915,-1.38516 1.54521,-0.79906 3.36515,-2.79434 4.0443,-4.43395 0.70501,-1.70205 0.94703,-4.29138 0.56407,-6.03498 -0.3689,-1.67962 -1.82187,-3.95934 -3.22882,-5.06604 C 531.88142,752.90548 529.5411,752 528.08765,752 c -1.45345,0 -3.60833,0.6764 -4.78862,1.5031 -1.18028,0.82671 -2.65965,3.05957 -3.28749,4.96192 -0.93288,2.82665 -0.84587,4.08184 0.47603,6.86754 0.88965,1.87479 2.60639,3.88647 3.81498,4.4704 1.2086,0.58392 2.7823,1.09214 3.49711,1.12936 z M 619,775.99252 c -2.70034,0 -5.77803,-0.77926 -7.69567,-1.94852 -1.75761,-1.07168 -3.91568,-3.0474 -4.7957,-4.39049 -0.88002,-1.34308 -1.8532,-4.00201 -2.16262,-5.90873 -0.37827,-2.331 0.0994,-4.96331 1.45807,-8.03477 1.35705,-3.06784 3.11675,-5.13698 5.35828,-6.30051 1.8357,-0.95288 5.14489,-1.73483 7.35375,-1.73767 2.20886,-0.003 5.34206,0.63234 6.96267,1.4115 1.62061,0.77917 3.97586,2.94572 5.23389,4.81455 1.52206,2.26106 2.28733,4.87059 2.28733,7.79966 0,2.42098 -0.69685,5.74933 -1.54855,7.39634 -0.8517,1.64701 -2.9892,3.87298 -4.75,4.9466 -1.92308,1.17258 -4.99834,1.95204 -7.70145,1.95204 z M 618.96853,771 c 1.98179,0 4.01902,-0.89664 5.57692,-2.45455 C 626.378,766.7129 627,765.01875 627,761.85991 c 0,-2.96777 -0.64918,-4.92202 -2.17431,-6.54546 C 623.41955,753.81769 621.50531,753 619.40747,753 c -1.78414,0 -3.97234,0.27953 -4.86267,0.62118 -0.89032,0.34165 -2.27713,1.8943 -3.08179,3.45034 -0.80465,1.55604 -1.46301,4.01112 -1.46301,5.45574 0,1.56974 1.17615,3.80274 2.92308,5.54966 1.98254,1.98255 3.92774,2.92308 6.04545,2.92308 z M 646,776 c -0.41531,0 -1.27403,-0.62526 -1.90826,-1.38946 -0.7737,-0.93225 -1.06078,-5.62128 -0.87244,-14.25 C 643.5,747.5 643.5,747.5 646,747.5 c 2.30303,0 2.53939,0.43333 3,5.5 0.41,4.51001 0.83385,5.5 2.35472,5.5 1.07312,0 3.62207,-2.31775 6.04863,-5.5 2.96514,-3.88854 4.9854,-5.59271 6.89529,-5.81642 1.5615,-0.18291 2.70136,0.17198 2.70136,0.84105 0,0.63661 -1.8,3.72355 -4,6.85987 -2.2,3.13631 -4,6.03955 -4,6.45164 0,0.41209 1.8,3.18583 4,6.16386 2.2,2.97803 4,5.88382 4,6.4573 0,0.57349 -1.3454,1.0427 -2.98979,1.0427 -2.51773,0 -3.57127,-0.87578 -6.67273,-5.54692 -2.7678,-4.16861 -4.1991,-5.47313 -5.76021,-5.25 -1.69136,0.24176 -2.13649,1.12927 -2.39602,4.7773 -0.17532,2.46421 -0.79292,5.05171 -1.37245,5.75 C 647.22927,775.42867 646.41531,776 646,776 Z m 35.54195,-0.65447 c -0.74115,0.28441 -2.08101,-0.0192 -2.97745,-0.67471 -1.38407,-1.01205 -1.58726,-3.07557 -1.3472,-13.68132 C 677.5,748.5 677.5,748.5 684.71626,748.20687 c 5.00354,-0.20325 8.12095,0.17471 10.16671,1.23261 1.79812,0.92984 3.38526,2.84323 4.06375,4.89909 0.71477,2.16575 0.78567,4.23037 0.19806,5.76739 -0.50339,1.31672 -1.8406,3.22749 -2.97159,4.24615 -1.15069,1.03641 -4.39426,2.13745 -7.36476,2.5 -5.25346,0.64118 -5.31159,0.68583 -5.61368,4.3121 -0.16789,2.01532 -0.91165,3.89691 -1.6528,4.18132 z M 687.96667,762 c 1.99833,0 4.17333,-0.54 4.83333,-1.2 0.66,-0.66 1.2,-2.145 1.2,-3.3 0,-1.155 -0.54,-2.64 -1.2,-3.3 -0.66,-0.66 -3.135,-1.2 -5.5,-1.2 -4.3,0 -4.3,0 -4.3,3.83333 0,2.10834 0.3,4.13334 0.66667,4.5 0.36666,0.36667 2.30166,0.66667 4.3,0.66667 z m 24.44618,14 c -1.36159,0 -2.72637,-0.65345 -3.03285,-1.45211 -0.30647,-0.79867 -0.26579,-1.92367 0.0904,-2.5 0.3562,-0.57634 1.5352,-1.04789 2.62,-1.04789 1.0848,0 2.25414,-0.73427 2.59852,-1.63172 0.36494,-0.95101 -1.10825,-5.12883 -3.53139,-10.01469 C 708.87089,754.74295 707,750.27233 707,749.41888 c 0,-1.09324 0.78731,-1.45823 2.66462,-1.2353 2.23167,0.26501 3.11182,1.37253 5.41704,6.81642 1.51384,3.575 3.12726,6.5 3.58539,6.5 0.45812,0 2.29566,-3.0375 4.08341,-6.75 2.72849,-5.66605 3.65186,-6.75 5.75,-6.75 1.37475,0 2.49954,0.52363 2.49954,1.16362 0,0.63999 -2.49551,5.92749 -5.54558,11.75 -3.05007,5.82251 -6.67516,11.59888 -8.05576,12.83638 -1.3806,1.2375 -3.62422,2.25 -4.98581,2.25 z m 33.30428,-0.74168 c -0.66942,0.24589 -1.77963,0.25085 -2.46713,0.011 -0.91646,-0.31968 -1.25,-4.02636 -1.25,-13.89163 0,-13.4556 0,-13.4556 8.75,-13.16666 7.98702,0.26374 8.75,0.46332 8.75,2.28893 0,1.72222 -0.83333,2.06944 -6,2.5 -6,0.5 -6,0.5 -6.28287,11.15563 -0.19211,7.23654 -0.67342,10.79907 -1.5,11.10269 z m -259.97015,-0.44309 c -0.96417,0.18292 -1.99122,-0.28814 -2.28234,-1.04679 -0.29113,-0.75866 -0.40227,-6.97942 -0.24698,-13.82391 C 483.48274,748.26078 483.62227,747.5 485.5,747.5 c 1.69697,0 2.07576,0.83333 2.5,5.5 0.3225,3.54753 0.94374,5.4645 1.75,5.4 0.6875,-0.055 1.62372,-0.1675 2.08048,-0.25 0.45676,-0.0825 2.34609,-2.2875 4.19851,-4.9 1.85242,-2.6125 3.8412,-5.08061 4.41952,-5.48469 0.57832,-0.40408 2.06399,-0.74158 3.30149,-0.75 1.2375,-0.008 2.25,0.47566 2.25,1.07574 0,0.60008 -1.84415,3.72007 -4.09811,6.93331 -4.09812,5.84227 -4.09812,5.84227 0.48182,12.26047 2.51896,3.53001 4.28811,6.71002 3.93144,7.06668 -0.35666,0.35667 -1.68429,0.64849 -2.95027,0.64849 -1.63388,0 -3.49356,-1.61324 -6.40894,-5.55964 -3.11295,-4.21384 -4.6335,-5.48469 -6.28155,-5.25 -1.81854,0.25897 -2.25622,1.12649 -2.67439,5.30096 -0.37243,3.7178 -0.94728,5.07618 -2.25302,5.32391 z m 69.99733,0.002 c -1.65621,0.19051 -2.96581,-0.23061 -3.28234,-1.05547 -0.28966,-0.75484 -0.3996,-6.97248 -0.24431,-13.81697 C 552.5,747.5 552.5,747.5 555,747.5 c 2.45579,0 2.50513,0.15599 2.78995,8.82002 0.19519,5.93725 0.65471,8.69843 1.40594,8.44802 0.61379,-0.2046 3.63331,-4.17361 6.71004,-8.82002 4.53776,-6.8528 6.06614,-8.44802 8.09407,-8.44802 2.5,0 2.5,0 2.5,13.4863 0,12.40475 -0.15078,13.51535 -1.88017,13.8484 -1.0341,0.19915 -2.26471,-0.24469 -2.73469,-0.98631 -0.46998,-0.74161 -0.86141,-4.61089 -0.86983,-8.59839 -0.008,-3.9875 -0.35281,-7.2345 -0.76531,-7.21555 -0.4125,0.019 -3.225,3.73145 -6.25,8.25 -4.38749,6.55375 -6.05741,8.27967 -8.25569,8.53252 z M 566,743.33989 c -1.375,0.25629 -3.4,0.23821 -4.5,-0.0402 -1.1,-0.2784 -2.7875,-1.20446 -3.75,-2.05793 -0.9625,-0.85346 -1.75,-2.157 -1.75,-2.89676 0,-0.73975 0.75207,-1.34501 1.67126,-1.34501 0.91919,0 2.51677,0.76517 3.55017,1.70039 1.77095,1.60269 2.0787,1.59279 5.35638,-0.17236 2.67772,-1.44205 3.74965,-1.60057 4.66094,-0.68928 0.91129,0.91129 0.73245,1.62638 -0.77764,3.10931 -1.07861,1.05921 -3.08611,2.13553 -4.46111,2.39183 z M 232.96862,711 c -7.92211,0 -11.15629,-0.35232 -11.47452,-1.25 -0.24372,-0.6875 -0.5671,-3.95 -0.71861,-7.25 -0.27549,-6 -0.27549,-6 -6.61921,-6.69966 -3.48904,-0.38481 -9.1854,-1.64531 -12.65858,-2.8011 -3.47317,-1.1558 -8.74358,-3.84062 -11.71202,-5.96627 -2.96843,-2.12565 -6.58855,-5.59016 -8.0447,-7.6989 -1.45616,-2.10874 -3.54923,-5.88022 -4.65127,-8.38108 -1.10204,-2.50086 -2.5466,-7.8343 -3.21013,-11.85211 -0.92612,-5.60788 -0.93737,-9.03559 -0.0485,-14.75339 0.63688,-4.09655 2.29127,-9.8439 3.67642,-12.77187 1.38516,-2.92798 4.28069,-7.32559 6.43453,-9.77248 2.15383,-2.44688 6.76048,-5.97861 10.23699,-7.84827 4.0907,-2.19998 9.84925,-4.1171 16.32093,-5.43353 10,-2.03414 10,-2.03414 10.5,-7.52774 0.5,-5.4936 0.5,-5.4936 11.75,-5.77635 11.25,-0.28275 11.25,-0.28275 11.26531,4.5 0.008,2.63051 0.34592,5.28067 0.75,5.88925 0.40408,0.60857 4.95252,1.81153 10.10764,2.67325 5.87635,0.98227 11.72273,2.72354 15.6717,4.66762 3.96374,1.95134 8.12372,5.09768 11.22169,8.48734 3.13773,3.43319 5.7952,7.68535 7.3283,11.72589 2.08749,5.50165 2.39924,7.99127 2.35905,18.8394 -0.0392,10.58079 -0.39549,13.38232 -2.32059,18.24666 -1.32425,3.34608 -4.39958,8.07205 -7.36192,11.31333 -2.7982,3.06167 -7.30958,6.69262 -10.02529,8.06878 -2.71571,1.37615 -8.3415,3.37265 -12.50174,4.43667 -4.16019,1.06401 -9.0189,1.93456 -10.79707,1.93456 -2.02563,0 -3.45974,0.59074 -3.84004,1.58179 -0.33385,0.86998 -0.60699,4.24498 -0.60699,7.5 C 244,711 244,711 232.96862,711 Z M 218,677.69574 c 2.5,-0.19574 2.5,-0.19574 2.76722,-25.47052 0.23858,-22.5656 0.093,-25.34163 -1.35821,-25.89851 -0.89398,-0.34305 -4.00083,0.12504 -6.90409,1.04022 -3.72166,1.17315 -6.45286,2.9378 -9.2595,5.98265 -2.18946,2.37528 -4.59261,6.08083 -5.34032,8.23456 -0.74772,2.15372 -1.35221,7.06586 -1.34331,10.91586 0.0121,5.25022 0.59492,8.19511 2.33143,11.78105 1.27339,2.62957 4.01753,6.21019 6.09809,7.95693 2.08057,1.74674 5.29616,3.73335 7.14577,4.41469 1.8496,0.68134 4.48792,1.15072 5.86292,1.04307 z m 30.45297,-0.24783 c 1.12587,-0.30691 3.93856,-1.23746 6.25043,-2.06788 2.31187,-0.83042 5.57533,-3.07239 7.25214,-4.98217 1.6768,-1.90977 3.78244,-5.14306 4.67919,-7.18509 1.03581,-2.35866 1.65505,-6.6382 1.69787,-11.7339 0.0539,-6.4097 -0.39261,-8.9714 -2.22239,-12.75121 -1.25939,-2.60155 -3.84971,-6.01589 -5.75627,-7.58744 -1.90656,-1.57155 -5.18086,-3.371 -7.27622,-3.99879 C 250.98235,626.51364 248.35581,626 247.24097,626 c -1.11485,0 -2.30014,0.7118 -2.63398,1.58179 -0.33385,0.86998 -0.60699,12.02998 -0.60699,24.8 0,16.7571 0.33476,23.55297 1.20297,24.42118 0.66163,0.66163 2.12413,0.95186 3.25,0.64494 z m 59.07644,24.15459 c -3.31617,0.18524 -7.60441,-0.13478 -9.52941,-0.71114 -1.925,-0.57636 -3.84391,-1.37911 -4.26425,-1.78389 -0.42033,-0.40478 -0.0224,-4.08205 0.8843,-8.17172 0.9067,-4.08966 2.02957,-7.92157 2.49527,-8.51534 0.4657,-0.59378 2.23045,-0.87651 3.92169,-0.62829 2.23657,0.32826 3.72728,-0.16151 5.46746,-1.79632 1.57798,-1.48244 2.8871,-4.50279 3.8453,-8.87172 0.79904,-3.64324 1.77913,-8.87408 2.17797,-11.62408 0.39885,-2.75 1.00577,-13.1 1.34872,-23 0.62354,-18 0.62354,-18 31.62354,-18 31,0 31,0 31,40.5 0,40.5 0,40.5 -10.73571,40.78369 -10.7357,0.28368 -10.7357,0.28368 -11,-31 C 354.5,637.5 354.5,637.5 344,637.5 c -10.5,0 -10.5,0 -11.11558,14.5 -0.33857,7.975 -1.18569,17.87489 -1.88248,21.99976 -0.69679,4.12486 -1.89978,9.29986 -2.67331,11.5 -0.77353,2.20013 -2.51441,5.67885 -3.86864,7.73049 -1.35422,2.05163 -4.36098,4.69892 -6.68169,5.88285 -2.52571,1.28853 -6.63978,2.28781 -10.24889,2.4894 z M 422,701.65009 c -4.675,0.16052 -9.625,-0.0772 -11,-0.52829 -1.375,-0.45108 -4.36897,-1.77496 -6.65327,-2.94195 -2.2843,-1.16699 -5.48316,-3.73518 -7.10857,-5.70709 -1.62542,-1.97191 -3.46894,-5.29968 -4.09673,-7.39504 -0.62779,-2.09537 -1.13155,-6.00755 -1.11947,-8.69374 0.0121,-2.68619 0.85096,-6.70909 1.86417,-8.93979 1.01321,-2.23069 3.79617,-5.72833 6.18436,-7.77253 2.38818,-2.04419 6.61181,-4.43679 9.38583,-5.31688 3.00714,-0.95404 10.69661,-1.85345 19.04368,-2.22747 14,-0.62731 14,-0.62731 13.91988,-4.79357 -0.0441,-2.29144 -0.86657,-5.36653 -1.82778,-6.83353 -0.96122,-1.46699 -3.27321,-3.30467 -5.13776,-4.08374 C 433.58978,635.63741 428.99433,635 425.24222,635 c -3.75211,0 -9.50407,0.72919 -12.78212,1.62043 -3.27806,0.89124 -6.87857,1.82573 -8.00115,2.07664 -1.71331,0.38294 -2.47603,-0.60301 -4.75,-6.14024 C 398.21903,628.92879 397,625.30035 397,624.49362 c 0,-0.80673 1.53542,-2.10832 3.41203,-2.89242 1.87662,-0.7841 6.8665,-2.19418 11.08861,-3.13351 5.70343,-1.2689 10.67395,-1.59551 19.33797,-1.27071 9.04239,0.33898 12.72444,0.91314 16.39473,2.55649 2.60333,1.16563 6.24325,3.271 8.08871,4.6786 1.84546,1.4076 4.53605,4.72855 5.97909,7.3799 1.44305,2.65134 3.1033,7.94079 3.68946,11.75433 0.60453,3.93306 0.94536,17.53638 0.78757,31.4337 C 465.5,699.5 465.5,699.5 455.5,699.5 c -10,0 -10,0 -10.31336,-3.25 -0.17482,-1.81315 -0.87999,-3.25 -1.59501,-3.25 -0.70491,0 -2.1389,0.94788 -3.18664,2.10641 -1.04775,1.15852 -3.70499,3.03913 -5.90499,4.17912 -2.92377,1.51503 -6.28699,2.15123 -12.5,2.36456 z M 425.68868,685 c 3.71439,0 7.11171,-0.66439 9.32692,-1.82399 2.16613,-1.13391 4.34818,-3.49851 5.76752,-6.25 1.27343,-2.46866 2.15791,-5.75272 2,-7.42601 -0.27628,-2.92752 -0.42809,-3.00775 -6.28312,-3.32058 -3.3,-0.17632 -8.43906,-0.0219 -11.42014,0.34322 -4.07414,0.49895 -6.12288,1.36653 -8.25,3.49365 C 414.91974,671.92641 414,673.8712 414,676 c 0,2.1525 0.92808,4.08193 2.92308,6.07692 2.56369,2.56369 3.6414,2.92308 8.7656,2.92308 z M 703,701.70455 c -6.34065,0.25833 -9.77552,-0.1095 -13.52091,-1.4479 -2.7615,-0.98682 -6.47226,-2.82766 -8.24614,-4.09078 -1.77388,-1.26311 -4.38229,-4.27094 -5.79648,-6.68406 -1.47631,-2.51913 -2.80235,-6.64323 -3.11396,-9.68465 -0.29849,-2.91344 -10e-4,-7.32216 0.66057,-9.79716 0.83815,-3.13445 2.62682,-5.87928 5.89436,-9.04525 3.29594,-3.19348 6.46531,-5.11686 10.65682,-6.46725 4.12533,-1.32907 10.13045,-2.08635 19.46574,-2.45475 13.5,-0.53275 13.5,-0.53275 13.80861,-3.71907 0.16973,-1.75248 -0.41461,-4.58488 -1.29855,-6.29422 -0.88394,-1.70935 -3.04781,-3.98632 -4.80861,-5.05994 -2.42588,-1.47915 -5.02804,-1.95295 -10.74135,-1.95578 -4.14695,-0.002 -10.22195,0.72545 -13.5,1.61669 -3.27806,0.89124 -6.88732,1.8274 -8.02059,2.08035 -1.75071,0.39078 -2.46483,-0.57069 -4.75,-6.39519 C 678.21028,628.53528 677,624.93145 677,624.29709 c 0,-0.63437 2.38296,-2.04497 5.29546,-3.13468 2.9125,-1.0897 8.07933,-2.52898 11.48183,-3.19838 3.69062,-0.72608 10.73225,-1.03613 17.45454,-0.76853 8.59814,0.34227 12.38975,0.94956 16.00151,2.56293 2.60333,1.1629 6.24325,3.26604 8.08871,4.67364 1.84546,1.4076 4.52037,4.69975 5.94426,7.31589 1.42388,2.61614 3.08868,7.68059 3.69954,11.25433 0.67349,3.94007 0.99721,16.33824 0.82241,31.49771 -0.28826,25 -0.28826,25 -10.28826,25 -10,0 -10,0 -10.31336,-3.25 -0.17235,-1.7875 -0.6651,-3.25 -1.09501,-3.25 -0.42991,0 -1.6389,0.94788 -2.68664,2.10641 -1.04775,1.15852 -3.70499,3.03913 -5.90499,4.17912 -2.88249,1.49364 -6.37471,2.16946 -12.5,2.41902 z m 4.10212,-16.76794 c 4.233,0.0479 6.43253,-0.49136 9,-2.20654 1.86883,-1.24847 4.19599,-3.83597 5.17147,-5.75 0.97547,-1.91404 1.65047,-5.05507 1.5,-6.98007 C 722.5,666.5 722.5,666.5 715.5,666.17334 c -3.85,-0.17966 -9.35367,0.18813 -12.23038,0.81733 -3.53623,0.77344 -5.88454,1.97562 -7.25,3.71151 -1.11079,1.41215 -2.01962,3.75672 -2.01962,5.21017 0,1.45345 0.72315,3.67508 1.607,4.93695 0.88385,1.26187 2.57135,2.68347 3.75,3.15912 1.17865,0.47564 4.66395,0.89333 7.74512,0.92819 z M 496.66667,700 c -5.68334,0 -10.63334,-0.3 -11,-0.66667 -0.36667,-0.36666 -0.65978,-18.25416 -0.65136,-39.75 0.008,-21.49583 0.37712,-39.65333 0.81932,-40.35 0.62333,-0.98202 6.85609,-1.20675 27.73469,-1 C 540.5,618.5 540.5,618.5 540.5,627 c 0,8.5 0,8.5 -14.5,8.7428 -7.975,0.13354 -15.5125,0.47961 -16.75,0.76905 C 507,637.0381 507,637.0381 507,668.51905 507,700 507,700 496.66667,700 Z m 68.07208,-0.21365 c -9.76125,0.28635 -9.76125,0.28635 -9.5,-40.5 C 555.5,618.5 555.5,618.5 566.77757,618.21699 c 11.27756,-0.28301 11.27756,-0.28301 12.84359,2.5 0.86132,1.53066 6.81141,11.96806 13.22243,23.19424 6.41103,11.22617 12.10641,20.4064 12.65641,20.40052 0.55,-0.006 6.175,-9.21265 12.5,-20.45945 6.325,-11.24681 12.30741,-21.6791 13.29424,-23.18286 1.79424,-2.73411 1.79424,-2.73411 13,-2.45178 C 655.5,618.5 655.5,618.5 655.5,659 c 0,40.5 0,40.5 -10,40.5 -10,0 -10,0 -10.26778,-24.25 -0.14979,-13.56552 -0.66563,-24.25 -1.17077,-24.25 -0.49664,0 -5.04699,7.5375 -10.11188,16.75 -5.06489,9.2125 -10.29638,18.45934 -11.62553,20.54852 -2.38592,3.75025 -2.48913,3.79473 -8.12034,3.5 C 598.5,691.5 598.5,691.5 587.8167,671.52223 c -5.87581,-10.98777 -11.15523,-20.13507 -11.73204,-20.32734 -0.7077,-0.2359 -1.13589,7.56164 -1.31671,23.97776 C 574.5,699.5 574.5,699.5 564.73875,699.78635 Z M 778.36163,700 c -7.42602,0 -10.56259,-0.36012 -10.90485,-1.25202 -0.26424,-0.68862 -0.36262,-19.02612 -0.21861,-40.75 C 767.5,618.5 767.5,618.5 777.91821,618.21316 c 7.66142,-0.21094 10.63427,0.0537 11.23469,1 0.44906,0.70776 0.82337,7.71022 0.83179,15.56102 0.0153,14.27418 0.0153,14.27418 16.76531,14 C 823.5,648.5 823.5,648.5 824,633.5 c 0.5,-15 0.5,-15 11,-15 10.5,0 10.5,0 10.5,40.5 0,40.5 0,40.5 -10.75,40.78383 C 824,700.06766 824,700.06766 824,685.61562 c 0,-7.94863 -0.27314,-15.16385 -0.60699,-16.03383 C 822.87367,668.22842 820.4188,668 806.39301,668 790,668 790,668 790,682.41821 c 0,7.93002 -0.27314,15.13002 -0.60699,16 C 788.89323,699.72062 786.94482,700 778.36163,700 Z"
         id="path161"
         inkscape:label="text-niz"
         sodipodi:nodetypes="sssssssssssssssssssssssssssssssssssssssssssssssssssssssssssssssssssssssssssssssssssssssssssssssssssssssssssssssssssssssssssssssssssssssssssssssssssssssssssssssssssssssssssssssssssssssssssssssssssssssssssssssssssssssssssssssssssssssssssssssssssssssssscsssssssssssssssssscssssssssssssssssscssssssssssscsssssssssssssssssssssssssssssssssssssssssssssssssssssssssssssssssssssssssssssssssssssssssssssssssssssssssscssssssssscsssssssssscssccssssssssssssssssssssssssssscsssssssssssssssssssssssssssssssssssssssssssssssssssssssssssssssssssssssssssssssssssssssssssssssssssssssssscsssssssssssssssssssssssssssssssssssssscssssssssssssssssssssssssssssssssssssssssssss" />
      <path
         style="display:none;fill:#333433;stroke:#000000;stroke-opacity:1"
         d="m 179.86301,358.99626 c -2.45773,0.003 -5.19117,-1.05003 -8.43034,-3.24626 -2.70133,-1.83156 -5.647,-4.91879 -6.74925,-7.0736 -1.68271,-3.28956 -1.79467,-4.36172 -0.80159,-7.67631 0.63486,-2.11898 2.53069,-5.01086 4.21296,-6.42639 1.7594,-1.48045 4.30041,-2.5737 5.98194,-2.5737 1.92007,0 2.92327,0.51016 2.92327,1.48658 0,0.81762 -1.57786,2.14585 -3.50636,2.95163 -2.17067,0.90697 -3.91092,2.52913 -4.56839,4.2584 -0.82231,2.16282 -0.71092,3.52963 0.49345,6.05521 0.85551,1.79403 3.02378,4.15711 4.81839,5.25129 1.7946,1.09418 4.69275,1.9911 6.44033,1.99315 2.24434,0.003 3.78605,-0.77001 5.25,-2.63112 1.13992,-1.44917 2.07258,-3.93829 2.07258,-5.53138 0,-1.73336 0.64289,-3.14323 1.60092,-3.51086 0.88051,-0.33788 1.99862,0.0137 2.48469,0.78138 0.48607,0.76765 0.89066,2.22771 0.89908,3.24459 0.008,1.01688 -0.73617,3.43251 -1.65465,5.36806 -0.91849,1.93556 -3.05599,4.36438 -4.75,5.39739 -1.69402,1.03301 -4.71668,1.87989 -6.71703,1.88194 z m 663.56699,-6 c -1.1385,0.002 -3.94523,-1.60138 -6.23717,-3.5632 -2.48338,-2.12568 -4.67744,-3.27776 -5.43,-2.85124 -0.69456,0.39364 -2.25243,1.6057 -3.46195,2.69346 -1.27625,1.14778 -2.88097,1.7161 -3.82391,1.35426 -0.89363,-0.34292 -1.47903,-1.26573 -1.30088,-2.05068 0.17815,-0.78495 4.73761,-5.28631 10.13214,-10.00302 C 838.70275,333.85913 843.48294,330 843.93087,330 c 0.44792,0 2.65647,1.9984 4.90788,4.44089 2.25141,2.4425 4.39084,5.62568 4.75428,7.07375 0.36344,1.44806 0.16287,3.72569 -0.44572,5.0614 -0.60859,1.3357 -2.5782,3.32584 -4.37692,4.42252 -1.79871,1.09668 -4.20189,1.99565 -5.34039,1.9977 z M 843.34557,348 c 1.09832,0 2.81988,-0.74474 3.82569,-1.65499 1.00581,-0.91024 1.82874,-2.6318 1.82874,-3.82568 0,-1.19389 -1.09237,-3.19693 -2.42749,-4.45121 -2.42749,-2.28051 -2.42749,-2.28051 -6,0.44437 -1.96488,1.49869 -3.57251,3.20497 -3.57251,3.79175 0,0.58677 0.97844,2.10836 2.17431,3.38131 1.19588,1.27295 3.07294,2.31445 4.17126,2.31445 z m -643.21801,-9.04343 c -0.34516,-0.0239 -4.79831,-3.96139 -9.8959,-8.75 -5.09758,-4.78861 -9.26008,-9.24671 -9.25,-9.90688 0.0101,-0.66017 0.67922,-1.57016 1.48696,-2.02219 1.06666,-0.59693 4.13214,1.69031 11.20011,8.35673 8.47428,7.99283 9.56063,9.38448 8.40893,10.77219 -0.7274,0.87647 -1.60495,1.57404 -1.9501,1.55015 z M 809.62234,334 c -0.82737,0 -1.8373,-0.5388 -2.2443,-1.19734 -0.46663,-0.75502 2.28216,-4.03092 7.44098,-8.86784 4.49954,-4.21877 8.18098,-8.33523 8.18098,-9.14767 0,-0.81245 -0.9,-2.29166 -2,-3.28715 -1.1,-0.99549 -2,-2.20435 -2,-2.68637 0,-0.48202 0.713,-1.15 1.58444,-1.48441 1.07895,-0.41403 3.79072,1.58138 8.5,6.25457 3.80356,3.77441 6.91556,7.41058 6.91556,8.08037 0,0.66979 -0.48657,1.51852 -1.08126,1.88606 -0.59469,0.36754 -2.30682,-0.5059 -3.80472,-1.94098 C 829.61612,320.17416 828.04919,319 827.63196,319 c -0.41723,0 -4.30161,3.375 -8.63196,7.5 -4.33035,4.125 -8.5503,7.5 -9.37766,7.5 z m -596.86777,-9 c -0.71952,0 -4.43407,-3.15 -8.25457,-7 -3.8205,-3.85 -7.43265,-7 -8.02701,-7 -0.59436,0 -2.60721,1.575 -4.47299,3.5 -1.86578,1.925 -3.99318,3.5 -4.72755,3.5 -0.73437,0 -1.58622,-0.6541 -1.893,-1.45354 -0.34325,-0.89451 1.55843,-3.58673 4.94455,-7 3.02628,-3.05056 5.88828,-5.54646 6.36001,-5.54646 0.47173,0 4.84925,4.01014 9.72782,8.91142 6.14445,6.17305 8.68281,9.39957 8.26054,10.5 -0.33528,0.87372 -1.19829,1.58858 -1.9178,1.58858 z m 583.65485,-4.76286 c -0.65223,0.40543 -1.73141,0.0798 -2.39818,-0.72359 -0.98791,-1.19037 -0.54588,-2.23929 2.38823,-5.66714 1.98029,-2.31352 3.60053,-4.52304 3.60053,-4.91005 0,-0.387 -1.8013,-2.331 -4.00288,-4.32 -2.20159,-1.989 -4.36331,-3.61636 -4.80383,-3.61636 -0.44053,0 -2.32751,1.575 -4.19329,3.5 -1.86578,1.925 -4.20406,3.5 -5.19617,3.5 -1.06491,0 -1.78916,-0.71687 -1.76802,-1.75 0.0197,-0.9625 4.03808,-6.025 8.92975,-11.25 8.48073,-9.05863 8.97643,-9.41912 10.66928,-7.7592 1.69757,1.66455 1.63494,1.88564 -1.42976,5.04761 -1.76279,1.81874 -3.20508,3.79552 -3.20508,4.39283 0,0.59732 1.8013,2.7134 4.00288,4.7024 2.20159,1.989 4.32011,3.61636 4.70784,3.61636 0.38772,0 2.37081,-1.62666 4.40685,-3.6148 2.03604,-1.98815 4.19252,-3.31159 4.79216,-2.94099 0.59965,0.3706 1.09027,1.38687 1.09027,2.25836 0,0.8715 -3.69106,5.45744 -8.20235,10.19098 -4.51129,4.73355 -8.73599,8.93816 -9.38823,9.34359 z M 223.6997,311 c -2.15994,0 -4.85129,-1.05158 -7.38057,-2.88378 -2.18952,-1.58609 -4.73204,-4.46659 -5.65004,-6.40113 C 209.75109,299.78055 209,296.61278 209,294.6756 c 0,-2.34072 0.87853,-4.56622 2.61912,-6.63479 1.44051,-1.71196 3.89316,-3.77148 5.45034,-4.57673 C 218.62663,282.65884 221.07037,282 222.5,282 c 1.42963,0 3.81447,0.63483 5.29966,1.41072 1.48519,0.7759 3.88286,2.6884 5.32815,4.25 1.4453,1.56161 3.1328,3.8222 3.75,5.02354 0.61721,1.20134 1.12219,3.75431 1.12219,5.67327 0,2.30498 -0.88883,4.54533 -2.61912,6.60166 -1.44051,1.71196 -3.89316,3.77148 -5.45034,4.57673 C 228.37337,310.34116 225.56949,311 223.6997,311 Z m 1.59575,-5.02661 c 1.66157,0.0158 3.79106,-0.969 5.25,-2.42794 1.57141,-1.5714 2.45455,-3.59262 2.45455,-5.61764 0,-2.34098 -1.00907,-4.17217 -3.88235,-7.04546 C 226.24436,288.00907 224.41317,287 222.07219,287 c -2.02502,0 -4.04624,0.88314 -5.61764,2.45455 -1.36694,1.36693 -2.45455,3.62484 -2.45455,5.0957 0,1.45264 0.73026,3.8774 1.6228,5.38835 0.89255,1.51096 2.80505,3.48091 4.25,4.37769 1.44496,0.89677 3.88515,1.64247 5.42265,1.6571 z M 771.24291,299 c -0.9664,0 -4.2289,-2.02724 -7.25,-4.50498 -3.0211,-2.47774 -5.62287,-4.89263 -5.78171,-5.36641 -0.15885,-0.47379 3.13314,-5.08405 7.31552,-10.24502 4.18238,-5.16097 8.25297,-9.52969 9.04576,-9.70825 0.79278,-0.17857 4.36329,1.82072 7.93447,4.44287 3.57118,2.62214 6.49305,5.35574 6.49305,6.07466 0,0.71892 -0.7875,1.29461 -1.75,1.27931 -0.9625,-0.0153 -3.51766,-1.3653 -5.67814,-3 C 779.41138,276.33748 776.89992,275 775.99084,275 c -0.90908,0 -2.28083,1.17333 -3.04832,2.60741 -1.28826,2.40712 -1.20522,2.76168 1.08102,4.61572 1.36205,1.10456 3.35813,2.62706 4.43573,3.38331 1.5629,1.09685 1.70748,1.62681 0.71465,2.61964 -0.99282,0.99282 -1.79381,0.89977 -3.95927,-0.45997 -1.49306,-0.93752 -3.78001,-2.26474 -5.08212,-2.94938 -2.09713,-1.10266 -2.59505,-0.96376 -4.36042,1.21638 -1.99295,2.46118 -1.99295,2.46118 2.61747,6.51814 2.53573,2.23133 4.61042,4.59511 4.61042,5.25286 0,0.65774 -0.79069,1.19589 -1.75709,1.19589 z m -519.89916,-7.27624 c -0.63594,0.20922 -4.79049,-4.03053 -9.23233,-9.42168 -4.44183,-5.39114 -8.08402,-10.56481 -8.09374,-11.49704 -0.01,-0.93223 2.53058,-3.51973 5.64511,-5.75 3.11454,-2.23027 6.51912,-4.05504 7.56574,-4.05504 1.04663,0 2.76871,0.46334 3.82686,1.02964 1.05815,0.56631 2.60357,2.34396 3.43426,3.95034 0.83069,1.60639 1.51035,4.06675 1.51035,5.46748 0,1.50602 -1.4303,4.12995 -3.5,6.42086 -1.925,2.13074 -3.5,4.3123 -3.5,4.84789 0,0.5356 0.91981,1.80623 2.04402,2.82363 1.12421,1.01739 1.91171,2.73939 1.75,3.82666 -0.16171,1.08726 -0.81433,2.14803 -1.45027,2.35726 z M 247.2899,276.7235 c 1.1549,-0.76682 2.52839,-2.07365 3.05221,-2.90408 0.52382,-0.83043 0.65428,-2.69766 0.28991,-4.14941 -0.4166,-1.65989 -1.56191,-2.86529 -3.08585,-3.24778 -1.56634,-0.39312 -3.31811,0.0436 -4.95335,1.23477 -1.39148,1.01365 -2.54411,2.5226 -2.5614,3.35322 -0.0173,0.83062 1.13635,2.76961 2.56363,4.30886 2.34871,2.53298 2.79437,2.6663 4.69485,1.40442 z M 746.77856,288 c -1.54439,0 -1.84687,-0.60932 -1.59253,-3.20805 0.2915,-2.9785 -0.21956,-3.57736 -7.14252,-8.36946 -4.10106,-2.83877 -7.62108,-5.65521 -7.82226,-6.25875 -0.20118,-0.60354 2.91236,-5.85186 6.91899,-11.66294 4.63889,-6.7281 7.83903,-10.45886 8.81078,-10.27172 0.83931,0.16164 1.65084,0.96372 1.8034,1.7824 0.15256,0.81869 -2.42977,5.27474 -5.73852,9.90233 -3.30874,4.6276 -6.0159,8.7303 -6.0159,9.11712 0,0.38681 1.79035,1.8881 3.97856,3.33618 2.18821,1.44809 4.55071,2.62055 5.25,2.60546 0.69929,-0.0151 3.97144,-3.83246 7.27144,-8.48306 3.44583,-4.85611 6.71984,-8.46284 7.69098,-8.47257 0.93004,-0.009 1.97758,0.44678 2.32786,1.01354 0.35028,0.56677 -2.37307,5.07302 -6.05189,10.01391 -5.70318,7.65973 -6.49765,9.2137 -5.39176,10.54621 1.0759,1.29638 0.98273,2.14638 -0.54656,4.9861 -1.10724,2.05601 -2.60504,3.4233 -3.75007,3.4233 z M 277.78138,271.99125 c -0.70476,-0.005 -3.04871,-2.81731 -5.20877,-6.25 -2.16007,-3.43269 -5.00716,-7.71907 -6.32687,-9.5253 -2.39947,-3.28406 -2.39947,-3.28406 -5.80437,-1.17972 -1.87269,1.15739 -3.8631,1.82116 -4.42313,1.47504 -0.56003,-0.34612 -1.01824,-1.23442 -1.01824,-1.974 0,-0.73958 3.5751,-3.63802 7.94467,-6.44098 4.36956,-2.80296 8.64456,-5.09629 9.5,-5.09629 0.85543,0 1.55533,0.66463 1.55533,1.47695 0,0.81232 -1.125,2.21407 -2.5,3.11501 -1.375,0.90093 -2.5,2.10007 -2.5,2.66474 0,0.56468 2.52015,5.02072 5.60034,9.90232 3.16418,5.01472 5.35284,9.5206 5.03138,10.35831 -0.31292,0.81547 -1.14557,1.47873 -1.85034,1.47392 z M 297.05102,260 c -0.44337,0 -1.42373,-0.74176 -2.17858,-1.64836 -0.75484,-0.9066 -3.90382,-5.96605 -6.99772,-11.24323 -3.0939,-5.27717 -5.39978,-10.1825 -5.12417,-10.90073 0.27561,-0.71822 1.2233,-1.16678 2.10599,-0.99679 0.88269,0.16999 3.62987,3.79208 6.10484,8.04909 2.47498,4.25701 4.84616,7.74002 5.26929,7.74002 0.42313,0 0.76933,-5.1199 0.76933,-11.37756 0,-9.16105 0.30855,-11.63362 1.58382,-12.69201 1.08293,-0.89874 2.07008,-1.00773 3.12134,-0.34461 0.84564,0.53341 3.95161,5.45732 6.90215,10.94201 2.95055,5.48469 5.37095,10.75967 5.37866,11.72217 0.008,1.00853 -0.73103,1.75 -1.74445,1.75 -1.16628,0 -3.10269,-2.52289 -5.75,-7.49153 -2.19534,-4.12033 -4.32902,-7.49533 -4.74152,-7.5 -0.4125,-0.005 -0.75,4.68439 -0.75,10.4201 0,8.14719 -0.34377,10.77234 -1.57143,12 C 298.56429,259.29286 297.49439,260 297.05102,260 Z m 413.32348,-0.77091 c -0.48097,0.27556 -1.437,0.29924 -2.1245,0.0526 -0.6875,-0.24661 -1.25,-1.09712 -1.25,-1.89002 0,-0.79289 1.575,-4.56916 3.5,-8.3917 1.925,-3.82254 3.5,-7.18631 3.5,-7.47504 0,-0.2887 -0.4749,-0.52493 -1.05533,-0.52493 -0.58044,0 -4.56289,2.25 -8.8499,5 -4.287,2.75 -8.707,5 -9.82222,5 -1.11521,0 -2.50214,-0.57171 -3.08205,-1.27046 -0.77225,-0.93051 0.39325,-4.34224 4.35558,-12.75 2.97549,-6.31375 6.09623,-11.6253 6.93497,-11.80345 0.83875,-0.17815 1.79465,0.37881 2.12423,1.23768 0.32958,0.85887 -1.09403,5.16987 -3.16358,9.58001 -2.06955,4.41014 -3.57533,8.20592 -3.34619,8.43507 0.22915,0.22915 4.66628,-2.2486 9.86029,-5.50611 5.19401,-3.25751 9.71777,-5.92274 10.0528,-5.92274 0.33503,0 1.44194,0.60896 2.4598,1.35324 1.75846,1.28581 1.57488,1.92678 -3.68436,12.86404 -3.04427,6.33094 -5.92856,11.73625 -6.40954,12.01181 z m -30.88812,-14.64122 c -0.54251,0.13501 -1.54888,0.0205 -2.23638,-0.25454 -0.6875,-0.275 -1.25,-0.88375 -1.25,-1.35278 0,-0.46903 2.29272,-6.28153 5.09493,-12.91666 C 683.89715,223.42875 686.76705,218 687.47249,218 c 0.70544,0 1.73459,0.5625 2.28699,1.25 0.70934,0.88281 -0.50713,4.75184 -4.14118,13.17121 -2.83005,6.55666 -5.58941,12.03166 -6.13192,12.16666 z m -353.51754,-0.58866 c -0.97476,5e-4 -3.43032,-4.08736 -6.75736,-11.24921 -2.8744,-6.1875 -5.22288,-11.76465 -5.21883,-12.39366 0.004,-0.62901 2.93708,-2.31651 6.51787,-3.75 3.58079,-1.43349 7.20124,-2.60634 8.04546,-2.60634 0.84421,0 2.63947,1.10455 3.98947,2.45455 1.50712,1.50711 2.45455,3.60404 2.45455,5.43261 0,2.12728 0.58763,3.16457 2.05693,3.63091 1.13131,0.35906 2.78397,2.17747 3.67258,4.0409 1.30425,2.73504 1.39016,3.88296 0.44574,5.95575 -0.75802,1.66367 -3.37131,3.60912 -7.42258,5.52569 -3.43897,1.62691 -6.94169,2.95837 -7.78383,2.9588 z M 328.65557,239 c 0.2982,0 2.03787,-0.70976 3.86595,-1.57724 1.82808,-0.86748 3.58197,-2.25008 3.89754,-3.07244 0.31557,-0.82236 0.10955,-2.36261 -0.45783,-3.42276 C 335.39385,229.8674 334.11262,229 333.11404,229 c -0.99858,0 -3.23274,0.49402 -4.96482,1.09783 -1.84663,0.64373 -3.14922,1.79257 -3.14922,2.77749 0,0.92382 0.70052,2.6798 1.5567,3.90217 0.85619,1.22238 1.80068,2.22251 2.09887,2.22251 z m -3.90358,-11.68415 c 0.9614,-0.34092 2.53551,-1.29619 3.49801,-2.12284 0.9625,-0.82664 1.75,-2.30668 1.75,-3.28898 0,-0.9823 -0.4792,-2.08216 -1.06489,-2.44413 -0.58568,-0.36198 -2.63433,-0.36371 -4.55255,-0.004 -1.91822,0.35986 -3.7385,1.30794 -4.04507,2.10684 -0.30657,0.7989 0.16798,2.55961 1.05455,3.91268 1.09475,1.67081 2.17278,2.26126 3.35995,1.84028 z m 343.0798,11.06529 c -0.73249,0.20962 -2.23179,0.16372 -3.33179,-0.102 -1.1,-0.26573 -4.1375,-1.39265 -6.75,-2.50428 -2.6125,-1.11163 -4.73216,-2.52823 -4.71036,-3.148 0.0218,-0.61977 2.6093,-6.07686 5.75,-12.12686 3.41229,-6.57317 6.31402,-11 7.21036,-11 0.89832,0 1.4218,0.80224 1.30505,2 -0.10722,1.1 -0.49561,3.22929 -0.86309,4.73175 -0.57753,2.36128 -0.27985,2.87889 2.19495,3.81662 1.5747,0.59667 3.87559,2.03332 5.11309,3.19256 1.54382,1.44618 2.25,3.26259 2.25,5.78736 0,2.51986 -0.77293,4.51367 -2.45225,6.32569 -1.34874,1.45531 -2.88693,2.64602 -3.41821,2.64602 -0.53128,0 -1.56527,0.17151 -2.29775,0.38114 z m -1.70423,-4.44453 c 1.44515,0.0349 3.0628,-0.49911 3.59476,-1.18661 0.53197,-0.6875 1.25753,-2.06249 1.61237,-3.05553 0.42589,-1.1919 -0.18563,-2.63632 -1.79931,-4.25 C 668.19092,224.10001 666.1796,223 665.06578,223 c -1.35248,0 -2.69618,1.31537 -4.04546,3.96016 -1.11117,2.17809 -2.02032,4.21759 -2.02032,4.53223 0,0.31463 1.0125,0.97903 2.25,1.47645 1.2375,0.49741 3.4324,0.93291 4.87756,0.96777 z M 353.96862,233 c -1.11727,0 -2.22816,-0.5625 -2.46865,-1.25 -0.2405,-0.6875 -2.20783,-6.26604 -4.37186,-12.39675 -2.86855,-8.12662 -3.63569,-11.44567 -2.83136,-12.25 0.60679,-0.60679 1.47924,-1.10325 1.93879,-1.10325 0.45954,0 1.6823,1.97543 2.71724,4.38983 1.03493,2.41441 2.25644,4.6175 2.71446,4.89576 0.45802,0.27825 3.24175,-0.39596 6.18607,-1.49826 5.23161,-1.95862 5.33667,-2.07561 4.62081,-5.14576 -0.40289,-1.72786 -0.78688,-4.26657 -0.85332,-5.64157 -0.0876,-1.81253 0.38985,-2.5 1.73619,-2.5 1.47444,0 2.75645,2.55217 6.22318,12.38889 2.40141,6.81388 4.1267,12.77638 3.83399,13.25 -0.2927,0.47361 -1.36947,0.86111 -2.39281,0.86111 -1.34406,0 -2.3206,-1.38488 -3.51744,-4.98824 -0.91126,-2.74353 -2.03929,-5.22461 -2.50674,-5.51351 -0.46745,-0.2889 -3.35805,0.41314 -6.42354,1.56009 -3.0655,1.14695 -5.57363,2.51748 -5.57363,3.04563 0,0.52815 0.675,2.57577 1.5,4.55027 0.825,1.97451 1.5,4.43505 1.5,5.46788 C 356,232.343 355.2893,233 353.96862,233 Z M 642,228.40151 c -1.375,0.26773 -5.38857,-0.37415 -8.91905,-1.42641 -3.53048,-1.05227 -6.79067,-2.28482 -7.24486,-2.73901 -0.4542,-0.4542 1.02812,-6.36787 3.29403,-13.14151 4.11984,-12.3157 4.11984,-12.3157 7.43746,-11.77733 1.82469,0.29611 5.35166,1.43813 7.83771,2.53783 3.24588,1.43581 4.70781,2.74738 5.186,4.65262 0.48271,1.92328 0.0522,3.48322 -1.56492,5.6705 -1.62514,2.19813 -1.93156,3.31661 -1.1286,4.11957 0.60623,0.60623 1.10223,2.53738 1.10223,4.29145 0,1.75406 -0.7875,4.11988 -1.75,5.25735 -0.9625,1.13748 -2.875,2.2872 -4.25,2.55494 z m -3.28518,-4.4649 c 2.18353,0.0431 3.54223,-0.5484 4.23548,-1.84375 0.77347,-1.44524 0.60035,-2.38675 -0.71481,-3.88741 -0.95452,-1.08914 -3.17032,-2.44788 -4.92401,-3.0194 -2.33703,-0.76165 -3.45051,-0.72346 -4.1696,0.143 -0.5396,0.65018 -1.29024,2.41388 -1.66808,3.91934 -0.57079,2.27419 -0.28837,2.89684 1.6696,3.68101 1.29613,0.51911 3.80327,0.97235 5.57142,1.00721 z m 2.68305,-12.23115 c 1.04383,-0.113 2.39383,-1.02115 3,-2.01811 0.89579,-1.47328 0.66013,-2.17537 -1.25865,-3.75 C 641.84078,204.87181 639.94412,204 638.9244,204 c -1.01972,0 -2.31987,0.87042 -2.88922,1.93426 C 635.46583,206.9981 635,208.3626 635,208.96648 c 0,0.60388 1.0125,1.51342 2.25,2.0212 1.2375,0.50778 3.10404,0.83078 4.14787,0.71778 z M 717.49675,228 c -2.10846,0 -4.41231,-0.88346 -6.10845,-2.34242 -1.86683,-1.60578 -2.51267,-2.89109 -2.0537,-4.08716 0.60341,-1.57246 0.97679,-1.48619 3.78132,0.87367 1.72381,1.45049 3.84159,2.39163 4.74794,2.10999 0.89988,-0.27963 2.25629,-0.11901 3.01426,0.35694 0.75796,0.47596 1.0689,1.36568 0.69098,1.97718 -0.37792,0.61149 -2.21048,1.1118 -4.07235,1.1118 z m -325.50977,-7 c -3.32719,0 -5.53072,-0.63987 -7.47775,-2.1714 -1.51827,-1.19427 -3.59407,-4.00677 -4.6129,-6.25 -1.01882,-2.24323 -1.86061,-5.6536 -1.87063,-7.5786 -0.01,-1.925 0.86019,-4.94065 1.93382,-6.70145 1.07362,-1.7608 3.29959,-3.8983 4.9466,-4.75 1.64701,-0.8517 5.00738,-1.54855 7.46749,-1.54855 3.40189,0 5.24223,0.64731 7.68564,2.70331 1.76698,1.48682 3.82651,4.17236 4.57672,5.96788 0.75022,1.79551 1.3574,4.96653 1.34929,7.04669 -0.008,2.08017 -0.57717,4.89361 -1.26457,6.2521 -0.68741,1.3585 -2.77232,3.496 -4.63314,4.75 C 397.7534,220.29297 395.24141,221 391.98698,221 Z m 0.18847,-4 c 0.95175,0 2.827,-0.49962 4.16723,-1.11027 1.34022,-0.61065 2.9364,-2.20683 3.54705,-3.54705 0.61065,-1.34023 1.11027,-3.56296 1.11027,-4.93939 0,-1.37644 -0.67243,-3.80295 -1.49429,-5.39225 -0.82186,-1.5893 -2.49699,-3.59195 -3.7225,-4.45034 C 394.55769,196.70232 392.4955,196 391.20057,196 c -1.29493,0 -3.6698,1.31538 -5.27749,2.92308 -1.98422,1.98422 -2.92308,3.92729 -2.92308,6.04966 0,1.71962 0.67243,4.42692 1.49429,6.01622 0.82186,1.5893 2.49699,3.59195 3.7225,4.45034 1.22552,0.85838 3.00692,1.5607 3.95866,1.5607 z m 214.43969,1.96086 c -2.26333,-0.0215 -5.50331,-0.64355 -7.19995,-1.38227 -1.69665,-0.73872 -4.05915,-2.5818 -5.25,-4.09572 C 592.61334,211.51002 592,209.34082 592,205.8253 c 0,-2.93952 0.80535,-6.48358 2.00981,-8.84453 1.1054,-2.16676 3.33305,-4.62383 4.95034,-5.46016 1.61729,-0.83634 4.42538,-1.51073 6.24019,-1.49865 1.81481,0.0121 5.1338,0.855 7.37552,1.87315 2.75368,1.25067 4.61894,2.99563 5.75,5.37916 0.92078,1.94039 1.66426,4.80998 1.65218,6.37686 -0.0121,1.56688 -0.85555,4.68424 -1.87437,6.92747 -1.01883,2.24323 -3.09463,5.05573 -4.6129,6.25 -1.84761,1.45333 -4.12135,2.15846 -6.87563,2.13226 z M 605.44187,215 c 1.25863,0 3.44152,-0.90704 4.85088,-2.01564 1.40936,-1.1086 3.08046,-3.58516 3.71355,-5.50346 0.6331,-1.9183 0.84773,-4.869 0.47696,-6.5571 -0.42605,-1.93979 -1.83498,-3.77711 -3.82869,-4.99279 -1.73501,-1.05795 -3.93497,-1.92522 -4.88879,-1.92727 -0.95383,-0.002 -3.14914,1.26049 -4.87848,2.80565 -2.52623,2.25719 -3.23886,3.79401 -3.62559,7.81871 -0.44842,4.66684 -0.26347,5.19263 2.70521,7.69061 1.75259,1.47471 4.21632,2.68129 5.47495,2.68129 z m -169.72325,2.98469 c -0.42977,0.008 -0.95721,-0.54719 -1.17209,-1.23469 -0.21489,-0.6875 -0.6666,-2.91319 -1.0038,-4.94599 -0.51799,-3.12265 -0.27469,-3.87709 1.56839,-4.86348 2.10039,-1.1241 2.15825,-1.57334 1.55671,-12.08695 -0.60917,-10.64673 -0.56911,-10.94033 1.6037,-11.75549 1.22566,-0.45983 5.67267,-1.15434 9.88226,-1.54337 7.65378,-0.70733 7.65378,-0.70733 8.20792,2.11898 0.30477,1.55446 0.83424,5.9763 1.1766,9.8263 0.34236,3.85 0.8262,7.73891 1.0752,8.64203 0.249,0.90312 1.2692,1.85554 2.2671,2.1165 1.18949,0.31106 2.02618,1.77967 2.42936,4.26417 0.33824,2.08434 0.38031,4.16942 0.0935,4.6335 -0.28682,0.46409 -1.18107,0.8438 -1.98723,0.8438 -0.80615,0 -1.89846,-1.13816 -2.42735,-2.52925 -0.937,-2.46449 -1.13478,-2.51163 -7.72525,-1.84132 -3.72,0.37836 -7.88863,0.98431 -9.26363,1.34657 -1.6406,0.43222 -2.6206,1.49489 -2.85082,3.09132 -0.19294,1.33797 -0.86794,2.76329 -1.5,3.16737 -0.63205,0.40408 -1.5008,0.74158 -1.93056,0.75 z m 12.0429,-12.45514 c 2.60617,-0.38175 5.10569,-1.04677 5.5545,-1.47784 0.44881,-0.43106 0.30002,-4.55241 -0.33065,-9.15856 -0.63067,-4.60614 -1.5653,-8.63353 -2.07696,-8.94975 -0.51165,-0.31622 -2.83786,-0.31307 -5.16935,0.007 -4.23906,0.58196 -4.23906,0.58196 -4.00284,9.05867 0.12991,4.66219 0.4726,9.09272 0.76152,9.84563 0.39685,1.03419 1.68401,1.19921 5.26378,0.67485 z M 568.4096,212 c -0.8098,0 -1.70862,-0.61567 -1.99738,-1.36815 -0.28876,-0.75249 0.3691,-6.87122 1.46189,-13.59718 1.0928,-6.72596 2.25768,-12.4998 2.58864,-12.83075 0.33096,-0.33096 4.27278,-0.0667 8.7596,0.58728 4.48683,0.65396 8.61232,1.64347 9.16776,2.19891 0.67985,0.67985 0.64577,1.37401 -0.10429,2.12407 -0.78596,0.78596 -2.74506,0.8332 -6.65044,0.16035 -3.04494,-0.5246 -5.96092,-0.68848 -6.47995,-0.36418 -0.51903,0.32431 -1.68811,5.28037 -2.59797,11.01347 -0.90985,5.7331 -1.88405,10.7956 -2.16489,11.25 C 570.11174,211.62822 569.2194,212 568.4096,212 Z M 484.5,207.23142 c -1.65,0.28439 -4.28585,0.14964 -5.85745,-0.29943 -1.5716,-0.44907 -3.75517,-1.62892 -4.85238,-2.62188 -1.09721,-0.99297 -2.62386,-3.0216 -3.39255,-4.50809 -0.76869,-1.48648 -1.39594,-4.86255 -1.39388,-7.50236 0.002,-3.04841 0.7401,-6.00744 2.02189,-8.10984 1.13058,-1.85436 3.64205,-3.98868 5.7105,-4.85293 2.22371,-0.92912 5.21329,-1.33876 7.51621,-1.02987 2.10312,0.28209 4.92235,1.23265 6.26495,2.11235 1.3426,0.87971 3.17867,3.02578 4.08015,4.76906 0.90149,1.74328 1.66369,5.22654 1.6938,7.74058 0.0301,2.51405 -0.70573,6.02587 -1.63518,7.80406 -0.92945,1.77819 -2.9198,3.85142 -4.42299,4.60718 -1.50319,0.75576 -4.08307,1.60679 -5.73307,1.89117 z M 482.63435,203 c 2.33659,0 4.25186,-0.7953 5.9111,-2.45455 C 490.50866,198.58225 491,197.07183 491,193 c 0,-4.07183 -0.49134,-5.58225 -2.45455,-7.54545 C 486.76316,183.67225 485.00281,183 482.11803,183 c -3.10089,0 -4.42777,0.57831 -6.04545,2.63486 -1.36497,1.73527 -2.07258,4.09899 -2.07258,6.92327 0,3.15463 0.68447,5.10186 2.58889,7.36514 1.97143,2.34291 3.41331,3.07673 6.04546,3.07673 z m 58.99041,5 c -1.3787,0 -2.80907,-0.48921 -3.17861,-1.08713 -0.36954,-0.59793 -0.28359,-1.45425 0.19098,-1.90294 0.47458,-0.44869 1.76287,-0.98323 2.86287,-1.18788 1.49314,-0.27777 1.97896,-1.12602 1.91698,-3.34706 -0.0457,-1.63624 -1.50281,-6.70367 -3.23811,-11.26094 -2.6404,-6.93429 -2.91233,-8.3791 -1.66697,-8.85699 0.81845,-0.31407 2.05684,-0.35279 2.75198,-0.086 0.69513,0.26674 2.29608,3.68989 3.55766,7.60699 1.26159,3.91709 2.72205,7.12199 3.24546,7.12199 0.52342,0 2.39406,-2.925 4.15697,-6.5 2.54888,-5.16886 3.67332,-6.5 5.49066,-6.5 1.25695,0 2.28537,0.52316 2.28537,1.16257 0,0.63942 -2.74608,6.04825 -6.10241,12.01963 -3.35632,5.97137 -6.92674,11.29822 -7.93426,11.83742 C 544.95582,207.55883 543.00346,208 541.62476,208 Z m -22.28572,-1.34554 c -2.91579,0.22776 -6.14562,-0.2117 -8.12647,-1.1057 -2.09851,-0.9471 -3.81638,-2.74964 -4.75,-4.98411 C 505.65816,198.63942 505,194.98029 505,192.43325 c 0,-2.54705 0.73568,-6.18132 1.63484,-8.07617 0.89917,-1.89485 2.90182,-4.10036 4.45035,-4.90113 1.54852,-0.80077 4.82831,-1.45595 7.28842,-1.45595 3.35314,0 5.2432,0.64813 7.54966,2.58889 1.6922,1.4239 3.07673,3.01302 3.07673,3.53139 0,0.51837 -0.66177,1.19643 -1.4706,1.50681 -0.80883,0.31038 -2.66952,-0.37874 -4.13486,-1.53138 C 521.9292,182.94307 519.42051,182 517.81969,182 c -1.75693,0 -3.8835,0.9729 -5.36514,2.45455 -2.0159,2.01589 -2.45455,3.44556 -2.45455,8 0,4.1883 0.48324,6.02869 1.97456,7.52001 1.08601,1.08601 3.08643,2.25363 4.44536,2.5947 1.64021,0.41166 3.83723,-0.14785 6.53559,-1.66441 3.16804,-1.78054 4.3303,-2.01904 5.26828,-1.08106 0.93798,0.93798 0.62446,1.78251 -1.42112,3.82808 -1.93538,1.93538 -3.89533,2.72386 -7.46363,3.00259 z M 418.5589,203.53591 c -5.28843,0.66074 -5.72562,0.56689 -5.39641,-1.15846 0.26968,-1.41333 1.82994,-2.1684 6.31155,-3.05441 3.27432,-0.64733 6.30715,-0.95827 6.73963,-0.69098 0.43248,0.26728 0.78633,1.08627 0.78633,1.81997 0,0.7337 -0.60445,1.56594 -1.34323,1.84944 -0.73877,0.28349 -3.93282,0.83899 -7.09787,1.23444 z"
         id="path159"
         inkscape:label="text-verh"
         sodipodi:nodetypes="csssssssssscsssscsscssssssssssssssssssssssssssssssssssssssssssssssssssssssssssssssssssssssssssssssssssssssssssssssssssssssssssssssssssssssscsssssssssssssssssssssssssssssscssssscsssssssssssscsssssssssssssscssssssssssssssssssssssssssssssssssssssssssssssssssscssscssccssssssssssssssssssssssssssssssssssssssssssssssssssssssssssssssssssssssssssssssssssssssssscssssssssssssssssssssssssssssssssssssssssssssssssssssssssssssssssssssssssssssssssssscsssssssssssssssssssssssssssssssssssssssssssssssssssssssssssss" />
      <path
         style="display:inline;fill:#ef5c42;stroke-width:1.944"
         d="m 146.14763,528.6742 c -6.98533,0.46786 -16.54242,0.0433 -21.238,-0.94325 -4.69557,-0.98665 -13.89846,-4.30261 -20.45088,-7.36887 -6.5524,-3.06623 -17.259229,-10.52421 -23.792938,-16.57331 -6.53373,-6.04906 -15.418936,-16.46809 -19.744894,-23.15336 -4.325984,-6.68529 -9.769131,-17.84126 -12.095905,-24.79106 -3.399589,-10.15416 -4.077812,-15.88807 -3.45314,-29.19362 0.632616,-13.47531 1.915942,-18.99078 6.893696,-29.62802 3.656832,-7.81449 10.080586,-17.0346 15.974552,-22.92856 5.42201,-5.42201 14.616547,-12.03663 20.432304,-14.6992 5.815785,-2.66254 15.792225,-5.81139 22.169845,-6.99744 8.54484,-1.58906 15.08865,-1.57766 24.87153,0.0434 7.57888,1.25586 19.47282,5.2626 27.71703,9.33712 9.87511,4.88054 18.48613,11.19912 27.23398,19.98376 8.13393,8.16811 15.06782,17.49251 19.03984,25.60396 3.43587,7.01657 7.2502,17.43489 8.47623,23.15176 1.22607,5.71689 1.85564,17.51176 1.39906,26.21083 -0.66233,12.61906 -3.26673,18.0406 -7.07601,29.16358 -4.02252,11.74557 -5.84016,14.03502 -16.00627,21.86156 -4.88336,3.75953 -10.38707,9.25836 -12.78008,11.55067 -2.39299,2.2923 -3.98621,3.01844 -5.33536,3.18335 -1.86029,0.22738 -4.98626,1.29679 -10.25923,2.17579 -5.31578,0.88613 -14.99003,3.54302 -21.97536,4.01087 z"
         id="path154"
         sodipodi:nodetypes="ssssssssssssssssssssssss"
         inkscape:label="raketka" />
      <path
         style="display:inline;fill:#ff9955;stroke-width:1.458"
         d="m 235.65375,341.88102 c -4.88462,0.0563 -9.9071,-1.00338 -14.32655,-3.08459 -4.08022,-1.92144 -7.75524,-4.89956 -10.62057,-8.38236 -3.06492,-3.72536 -5.26128,-8.24315 -6.6089,-12.8752 -1.2271,-4.21771 -1.72212,-8.75928 -1.21081,-13.122 0.43606,-3.7206 1.85331,-7.33064 3.59221,-10.64868 1.74306,-3.326 3.98802,-6.46786 6.72838,-9.03517 2.77207,-2.59702 6.02456,-4.81681 9.5637,-6.1965 4.13383,-1.61148 8.68561,-2.29563 13.122,-2.2323 4.6273,0.0661 9.41412,0.77589 13.61469,2.71794 4.31432,1.99467 8.15189,5.18496 11.18491,8.84458 3.21057,3.87382 5.66109,8.5223 7.00195,13.37166 1.20777,4.36804 1.52763,9.10436 0.77654,13.57364 -0.77522,4.61279 -2.61123,9.17668 -5.33694,12.9779 -3.06164,4.26967 -7.21326,7.94754 -11.88325,10.35479 -4.75202,2.44952 -10.25151,3.6747 -15.59736,3.73629 z"
         id="path162"
         sodipodi:nodetypes="aaaaaaaaaaaaaaaa"
         inkscape:label="myach" />
      <path
         style="display:inline;fill:#ffffff;stroke-width:1.944"
         d="m 392.03036,659.89746 c 2.4057,-1.26294 17.44663,-10.42666 28.38402,-17.8437 10.93738,-7.41704 39.64955,-29.48021 65.06502,-49.86932 25.41546,-20.3891 50.67759,-41.17082 56.55819,-46.1816 5.8806,-5.01078 19.54992,-15.94164 31.21645,-24.71083 11.66633,-8.76919 23.2727,-18.43096 24.95155,-19.37052 2.58552,-1.44696 0.28206,-7.86348 -7.44631,-19.1109 -5.01843,-7.30329 -11.34474,-16.46562 -16.99867,-22.88082 -5.65412,-6.4152 -16.71598,-15.67416 -22.06198,-20.57549 -5.346,-4.90131 -12.8352,-11.7168 -17.90282,-15.14552 -5.06762,-3.42874 -14.4405,-9.53764 -21.66868,-12.31529 -10.15313,-3.90161 -18.52974,-5.95189 -34.49465,-6.67988 -11.71474,-0.53418 -27.1366,-0.64027 -34.70732,0.65489 -7.34516,1.2565 -24.97717,4.22256 -38.34217,7.4313 -13.365,3.20875 -34.02979,7.98225 -44.14263,9.90595 -15.49412,2.94733 -21.29291,5.2871 -26.81508,9.69687 -6.585,5.25847 -18.80908,15.00679 -24.56894,24.08044 20.79801,4.64243 25.16326,7.75093 36.59111,10.65351 73.58941,18.69121 42.63459,41.52224 42.16239,140.59161 -0.15338,49.15442 -0.15338,53.96555 4.22052,51.6693 z"
         id="path191"
         sodipodi:nodetypes="sssssssssssssssscsss"
         inkscape:label="lis-white" />
      <path
         style="display:inline;fill:#f4a528;stroke:#b46900;stroke-width:1.944;stroke-opacity:1"
         d="m 403.66304,799.78047 c -2.1384,-0.0518 -5.7991,-0.86458 -8.13493,-1.80568 -2.33578,-0.94111 -5.17888,-3.45256 -6.318,-5.58097 -1.34554,-2.51423 -2.07107,-26.3699 -2.07107,-68.09954 0,-64.22963 0,-64.22963 17.982,-76.28236 9.8901,-6.629 26.38115,-18.39474 36.64676,-26.14614 10.26563,-7.75135 40.88363,-32.18487 68.04,-54.29665 27.15639,-22.11178 57.90454,-46.41197 68.32924,-54.0004 10.4247,-7.58844 18.954,-14.71437 18.954,-15.83541 0,-1.12105 -5.89786,-9.91117 -13.10635,-19.53363 -7.20848,-9.62243 -19.23698,-23.72554 -26.73,-31.34022 -7.49301,-7.61469 -19.18228,-17.42745 -25.97616,-21.80611 -6.7939,-4.37867 -17.26728,-9.80006 -23.2742,-12.04753 -6.00692,-2.24748 -17.72125,-4.86182 -26.03182,-5.80966 -9.27242,-1.05754 -21.60111,-0.98578 -31.91122,0.18565 -9.24061,1.04998 -31.42255,5.38503 -49.29323,9.6334 -17.87065,4.24841 -38.08941,8.28202 -44.93056,8.96362 -6.84116,0.68161 -12.83939,1.05847 -14.0719,2.02549 -1.38177,1.0841 -3.35956,1.68294 -5.00573,0.14638 -0.97084,-0.90617 -8.93739,-2.1041 -23.51704,-2.8444 -14.21115,-0.72157 -26.27035,0.89253 -23.42529,0.11897 2.673,-0.72679 13.63371,-6.41326 19.45664,-9.36962 5.82292,-2.95637 15.52601,-10.0861 21.56243,-15.84386 6.03641,-5.75775 13.32889,-14.79303 16.20554,-20.07838 2.87666,-5.28535 6.91236,-17.31272 8.96825,-26.72746 2.05586,-9.41476 4.9955,-20.67927 6.53246,-25.03224 1.53698,-4.353 5.06192,-12.38903 7.83319,-17.85786 2.77127,-5.46883 11.83194,-17.12706 20.13483,-25.90716 8.47945,-8.96683 14.83824,-17.32885 14.50768,-19.07815 -0.32368,-1.71275 -0.57792,-21.485 -0.56499,-43.9382 0.0136,-22.4532 0.57335,-44.1045 1.24536,-48.114 0.67203,-4.0095 1.47802,-7.29 1.79116,-7.29 0.31309,0 7.54244,7.2171 16.06519,16.038 8.52276,8.8209 24.48639,25.8795 35.47473,37.908 16.97489,18.58177 20.85729,21.87 25.82176,21.87 3.21365,0 11.28184,-1.00215 17.92931,-2.22699 6.64746,-1.22483 14.48002,-1.62619 17.40569,-0.8919 4.31537,1.08311 4.88851,1.85429 3.03648,4.08584 -1.25562,1.51291 -1.71858,3.66386 -1.02884,4.77991 0.68977,1.11603 7.38076,2.02914 14.86892,2.02914 13.6148,0 13.6148,0 29.20822,-13.74073 8.57637,-7.55741 25.36161,-20.99861 37.30046,-29.86935 11.93887,-8.87072 28.11213,-20.26641 35.94058,-25.32371 7.82844,-5.05731 14.5283,-8.89341 14.88855,-8.52465 0.36024,0.36873 -0.27255,30.97939 -1.40624,68.02365 -2.06123,67.35318 -2.06123,67.35318 5.424,76.788 4.11689,5.18914 8.46918,10.30959 9.67174,11.37879 1.20256,1.0692 11.26755,20.04845 22.36662,42.17605 20.18012,40.23208 20.18012,40.23208 16.38096,44.47599 -2.08954,2.33416 -10.36018,9.22855 -18.37918,15.32091 -8.019,6.09236 -21.3597,15.62931 -29.646,21.19326 -8.2863,5.56396 -15.066,11.26623 -15.066,12.67175 0,1.4055 1.83853,4.21929 4.08561,6.25287 2.24707,2.03358 13.03668,17.25948 23.97686,33.83531 10.94022,16.57583 26.26503,40.84107 34.05516,53.92275 7.79011,13.08169 14.83299,23.37135 15.65079,22.86591 0.81783,-0.50544 2.08279,-4.89226 2.81102,-9.74849 0.72822,-4.8562 5.34976,-16.89545 10.27006,-26.75388 7.56556,-15.15858 11.9754,-20.96051 28.57857,-37.60019 18.01068,-18.05028 21.47684,-20.57353 41.95626,-30.54265 16.81321,-8.18446 27.36225,-11.89293 42.73567,-15.02354 17.38416,-3.54009 24.59332,-3.99756 48.6,-3.08403 15.5034,0.58997 33.13181,2.3276 39.17425,3.86139 6.04242,1.53382 15.44651,4.27022 20.89799,6.08092 5.45148,1.81067 9.91179,4.16272 9.91179,5.22672 0,1.06403 -3.61062,8.11674 -8.0235,15.67272 -4.41288,7.55594 -10.51497,19.23285 -13.56005,25.9487 -3.04511,6.71586 -7.33568,18.61972 -9.53458,26.45307 -2.19891,7.83338 -5.30171,27.36446 -6.8951,43.40246 -1.59338,16.038 -4.25567,35.98 -5.91621,44.31556 -1.66052,8.33557 -5.12415,21.34464 -7.69698,28.90906 -2.57282,7.56442 -7.80891,19.3523 -11.63572,26.19529 -3.82683,6.84299 -11.28033,17.63577 -16.56334,23.98397 -5.28304,6.34819 -15.50884,16.29758 -22.72402,22.10975 -7.2152,5.81217 -18.80473,13.68019 -25.75453,17.48448 -6.9498,3.80429 -18.71311,9.20282 -26.14071,11.99674 -7.42759,2.79391 -20.98699,6.86314 -30.132,9.0427 -9.145,2.17958 -26.15512,5.07762 -37.84374,5.21865 -23.52497,0.2838 -22.67808,-1.95381 -24.94417,7.6953 -1.81416,7.72477 -7.44127,10.63879 -10.49506,12.50429 -5.1043,3.11806 -14.10326,5.34253 -112.83682,4.2525 -87.1155,-0.96179 -92.96208,-0.90971 -107.7705,-1.00385 0.88297,-5.57067 3.51215,-19.51175 4.99679,-26.73 1.5679,-7.62315 5.76141,-16.83333 5.9535,-18.74781 0.19206,-1.9145 -8.95769,-10.72715 -17.51129,-22.40522 -9.1506,-12.49309 -15.65875,-20.69801 -18.225,-23.73511 -2.41105,3.03315 -12.25901,21.42735 -24.66397,46.0977 -15.49565,30.81696 -22.82925,43.43904 -26.244,45.16935 -2.60646,1.32074 -6.48863,2.35879 -8.62703,2.30677 z m -2.916,-419.75212 c 3.10499,0 8.01008,-2.05996 10.97242,-4.60807 4.07964,-3.50917 5.35718,-6.3508 5.35718,-11.91593 0,-5.56511 -1.27754,-8.40674 -5.35718,-11.91592 -3.27428,-2.81639 -7.82881,-4.60808 -11.71395,-4.60808 -4.28533,0 -7.86081,1.60101 -10.97241,4.91316 -3.0947,3.29418 -4.61566,7.22068 -4.61566,11.91591 0,5.23219 1.35455,8.16791 5.3572,11.61086 2.96232,2.54811 7.86742,4.60807 10.9724,4.60807 z m 121.07276,0 c 2.53524,0 6.44674,-1.9683 8.69228,-4.374 2.24551,-2.4057 4.65619,-6.68548 5.35706,-9.51062 0.79667,-3.21132 0.087,-7.43237 -1.89301,-11.26151 -1.74201,-3.36869 -5.31241,-6.94046 -7.9342,-7.93727 -2.93467,-1.11574 -6.58946,-1.11942 -9.50869,-0.009 -2.60798,0.99156 -5.66978,3.5368 -6.804,5.65609 -1.13421,2.11928 -2.0622,7.01233 -2.0622,10.87342 0,4.86151 1.46726,8.48743 4.77165,11.79179 2.6244,2.6244 6.8459,4.77165 9.38111,4.77165 z m -139.05476,270.0752 c -2.4057,-0.0773 -11.8098,-2.59217 -20.898,-5.58831 -9.0882,-2.99616 -22.63932,-7.81588 -30.11356,-10.7105 -7.47428,-2.89463 -22.78328,-9.97728 -34.02,-15.73922 -11.23676,-5.76193 -28.21983,-15.65848 -37.74023,-21.9923 -9.52039,-6.33383 -23.55307,-17.07551 -31.18377,-23.87045 -7.63071,-6.79492 -19.9642,-21.88542 -22.44333,-24.47354 -2.34143,-2.44437 -1.498,-4.28308 0.50577,-9.07681 1.60392,-3.83713 3.22694,-6.08436 4.358,-7.21543 1.13106,-1.13105 4.32186,-3.08493 11.51138,-4.40735 5.90897,-1.08689 3.35548,-1.79245 16.65724,5.75777 4.6601,2.64513 14.43612,6.61117 21.384,9.45863 6.94788,2.84745 19.6309,6.87323 28.1845,8.94613 8.5536,2.07292 20.86073,3.77509 27.34917,3.78256 6.48842,0.007 16.54862,-1.39614 22.356,-3.11916 5.80736,-1.72304 14.60455,-5.18146 19.54934,-7.68538 4.94477,-2.50391 12.81797,-8.51549 17.496,-13.35908 4.67801,-4.8436 9.16159,-8.82099 9.96349,-8.83864 0.8019,-0.0175 1.458,28.83628 1.458,64.11988 0,64.152 0,64.152 -4.374,64.0112 z"
         id="path158"
         sodipodi:nodetypes="ssssssssssssssssssssssssssssscssssssssssssssssssssssssssssssssssssssssssssssssssscssscsssssssssssssssssssssssssssssssssssscssssss"
         inkscape:label="lis" />
      <path
         style="display:inline;fill:#333433;stroke:#000000;stroke-width:1.944;stroke-opacity:1"
         d="m 204.98199,545.68034 c -2.97761,-2.48248 -4.34765,-3.30822 -11.45429,-10.13046 -6.56788,-6.30502 -11.72988,-12.61453 -12.0345,-13.45692 -0.3046,-0.84241 2.3198,-3.74094 5.832,-6.4412 3.51222,-2.70022 8.98039,-7.33459 12.15149,-10.29854 5.76563,-5.38904 5.76563,-5.38904 17.01,6.83648 6.1844,6.72404 11.24435,12.9809 11.24435,13.9041 0,0.9232 -2.32199,1.15463 -4.0158,1.16219 -2.58197,0.0117 -5.66063,0.75401 -8.23162,1.90357 -1.92992,0.8629 -3.86475,2.00108 -5.18492,3.65222 -2.89834,3.62498 -3.81657,7.17471 -5.31671,12.86856 z m 102.60577,-87.89199 c -1.74514,0 -9.05444,-5.92684 -16.24284,-13.17079 -7.18845,-7.24393 -13.06988,-14.24233 -13.06988,-15.552 0,-1.7731 7.44662,-2.38121 29.16,-2.38121 27.41349,0 29.16,0.22256 29.16,3.71579 0,2.098 -5.62383,8.86899 -12.91713,15.552 -7.10446,6.5099 -14.34502,11.83621 -16.09015,11.83621 z m 92.80109,-77.81911 c -1.4068,-0.0324 -4.30741,-1.01606 -6.44581,-2.18569 -2.1384,-1.16962 -4.9815,-3.49721 -6.318,-5.17243 -1.3365,-1.67524 -2.43,-5.56059 -2.43,-8.63412 0,-3.07354 0.85634,-7.18833 1.90296,-9.14397 1.04664,-1.95564 4.57049,-4.48563 7.83078,-5.62216 3.26028,-1.13654 7.43405,-1.53561 9.27506,-0.8868 1.84096,0.64881 5.3155,2.95138 7.7212,5.11683 2.77636,2.4991 4.35142,6.12112 4.31218,9.91632 -0.0341,3.28853 -1.12752,7.36715 -2.43,9.0636 -1.3025,1.69646 -4.27897,4.10216 -6.61437,5.346 -2.33542,1.24385 -5.39722,2.23495 -6.804,2.20242 z m 121.88907,-1.88489 c -4.83277,0 -7.65632,-1.40304 -10.75736,-5.34539 -3.14212,-3.99456 -3.9357,-7.00311 -3.14021,-11.90511 0.58548,-3.60784 2.54968,-8.20081 4.3649,-10.20662 1.81522,-2.00577 5.7257,-3.64688 8.69,-3.64688 3.50704,0 6.79695,1.78916 9.4187,5.12217 2.21601,2.81718 4.02909,7.87134 4.02909,11.23144 0,3.36011 -1.3618,8.05355 -3.02622,10.42983 -2.10946,3.01169 -5.01132,4.32056 -9.5789,4.32056 z m 146.72651,-50.544 c -0.80111,0 -5.09455,-4.71547 -9.54095,-10.47884 -8.08439,-10.47886 -8.08439,-10.47886 -6.06037,-67.554 1.1132,-31.39133 2.33647,-61.30447 2.7184,-66.47362 0.47743,-6.46193 -0.0979,-9.7025 -1.8416,-10.3716 -1.39482,-0.53524 -8.79522,3.07589 -16.44534,8.02473 -7.65013,4.94884 -24.20154,16.7699 -36.78091,26.26898 -12.57935,9.49911 -29.41478,23.0005 -37.41203,30.00307 -14.54046,12.73198 -14.54046,12.73198 -27.48153,11.52352 -7.45135,-0.69583 -13.51016,-0.59506 -13.49548,-1.83237 0.0136,-1.18189 2.6284,-5.91747 5.6785,-8.05587 3.0501,-2.1384 15.53965,-11.08428 27.17704,-20.4835 11.63739,-9.39924 37.34268,-28.54386 57.12288,-42.54363 19.7802,-13.99977 39.60582,-27.09327 44.05692,-29.09666 6.19793,-2.78964 9.27607,-3.19271 13.14589,-1.72141 2.77914,1.05665 6.0697,4.1526 7.31235,6.87993 1.7375,3.8134 1.49423,21.22249 -1.05319,75.36904 -1.82195,38.72561 -3.83717,77.18993 -4.47831,85.47623 -0.64113,8.2863 -1.82115,15.066 -2.62227,15.066 z M 376.82859,298.64862 c -0.83165,0 -1.17908,-4.61797 -0.58829,-7.55827 0.5908,-2.9403 3.29491,-32.4648 6.00913,-65.61 2.71421,-33.1452 5.78094,-65.43661 6.81492,-71.75867 1.17262,-7.16965 3.48594,-13.20418 6.14822,-16.038 2.3475,-2.49884 6.44852,-4.54332 9.11334,-4.54332 3.38386,0 8.41766,3.6644 16.69048,12.15 6.51494,6.6825 28.31454,29.96427 48.44356,51.73727 20.12898,21.77299 35.86668,40.2515 34.97264,41.06336 -0.89405,0.81187 -6.6409,1.95978 -12.7708,2.55091 -11.14526,1.07478 -11.14526,1.07478 -47.39102,-37.80117 -25.72894,-27.59596 -36.84888,-38.27284 -38.32438,-36.79731 -1.33998,1.33997 -2.27788,20.21433 -2.6393,53.11378 -0.56066,51.03515 4.05634,44.96015 -8.22169,58.08215 -6.75294,7.2171 -17.42514,21.40927 -18.25681,21.40927 z"
         id="path160"
         inkscape:label="list-black"
         sodipodi:nodetypes="csssssssaacssssssssssssssssssssssssssssssssssssscssssssssssssssssssssssss" />
      <path
         style="display:inline;fill:#f08d04;stroke-width:1.944"
         d="m 732.07754,774.23364 c -3.2076,0.34954 -8.3835,1.82175 -9.72,1.34111 -1.89663,-0.68209 -0.8505,-24.96765 -0.8505,-95.52241 0,-70.42186 -1.4183,-98.84727 0.43513,-98.22943 1.30853,0.43617 6.87798,13.72827 10.00055,18.99449 3.12258,5.26621 9.55984,18.28468 14.30503,28.9299 4.74519,10.64523 11.54293,29.48361 15.1061,41.86302 3.56319,12.37943 8.7399,35.90289 11.50385,52.27435 2.76394,16.37147 4.65292,32.66995 5.02534,36.175 0.729,6.86101 1.50207,8.74953 -2.187,9.29551 -4.01349,0.59401 -10.9593,1.9648 -21.141,3.32189 -9.02251,1.20258 -19.2699,1.20705 -22.4775,1.55657 z M 499.99309,751.45385 c -0.87671,0 -11.16969,-13.17279 -20.34879,-25.56037 -9.17908,-12.38757 -14.83257,-17.77028 -15.35276,-20.63815 -0.58104,-3.20333 3.4506,-8.39063 6.9255,-11.7424 3.4749,-3.35175 8.78064,-7.02256 11.79056,-8.15736 3.33872,-1.25874 24.87847,-2.06322 55.242,-2.06322 27.3732,0 53.76065,0.58177 66.44067,0.58177 -19.5655,3.5235 -27.37802,4.75162 -37.26,8.06609 -9.88197,3.31446 -22.9986,9.37151 -29.14805,13.46014 -6.14946,4.08859 -14.76694,11.50322 -19.15,16.47691 -4.38301,4.9737 -10.15107,12.76099 -12.81788,17.30509 -2.6668,4.5441 -5.44456,12.2715 -6.32125,12.2715 z M 382.62524,649.3828 c -2.4057,-0.0838 -14.70085,-3.60636 -22.91232,-6.46287 -8.21146,-2.8565 -16.21301,-5.37153 -17.04621,-6.21898 -0.83317,-0.84745 -0.83165,-9.51712 -0.52162,-14.01567 0.31003,-4.49855 2.03836,-14.96891 3.52568,-22.11237 1.48732,-7.14349 4.10044,-19.87303 7.90706,-31.64809 6.15494,-19.03907 8.7905,-23.83782 16.90605,-31.61511 6.25415,-5.99347 13.38211,-15.0247 14.39244,-13.4356 0.81079,1.2753 1.30356,36.02457 1.31993,66.76407 0.0298,55.89 0.80299,58.89697 -3.57101,58.74462 z"
         id="path175"
         sodipodi:nodetypes="sssssssssssssssssscsssssssssssssss"
         inkscape:label="lis-shadow" />
      <path
         style="display:inline;fill:#e9e9e9;stroke-width:1.944"
         d="m 387.01851,501.95815 c 0.23302,-7.96123 -0.3123,-14.26931 0.19255,-14.77417 0.50489,-0.50485 6.75563,0.60989 12.48619,3.23344 5.73057,2.62353 13.582,7.54702 17.44762,10.94109 3.86562,3.39407 7.88068,8.61578 8.9223,11.60385 1.36111,3.90449 1.14787,7.20707 -0.75803,11.73987 -1.45855,3.4689 -8.03723,11.91532 -14.61928,18.76985 -6.58206,6.85451 -12.96017,13.74372 -14.35605,15.20773 -2.95903,3.10345 -5.07257,6.36939 -8.36914,8.87954 -0.3646,-6.14547 -0.002,-9.28087 -0.33336,-22.221 -0.46548,-18.16124 -0.57665,-22.40058 -0.6155,-24.3"
         id="path189"
         sodipodi:nodetypes="cssssssscsc"
         inkscape:label="lis-gray" />
    </g>
  </g>
</svg>
